<svg id="Layer_1" data-name="Layer 1" xmlns="http://www.w3.org/2000/svg" viewBox="0 0 219 219"><defs><style>.cls-1{fill:#d6cfb9;}.cls-2{fill:#333;}.cls-3{fill:#b7b7b7;}.cls-4{fill:#515151;}.cls-5,.cls-6{fill:none;stroke-miterlimit:10;}.cls-5{stroke:#000;stroke-linecap:round;stroke-width:2px;opacity:0.2;}.cls-6{stroke:#ce0000;}.cls-7{fill:#4d4dff;}.cls-8{fill:#ce0000;}.cls-9{fill:#738472;}.cls-10{opacity:0.44;}</style></defs><title>akai</title><rect class="cls-1" width="219" height="219" rx="16.47" ry="16.47"/><rect class="cls-2" x="20" y="20" width="81" height="37" rx="4.85" ry="4.85"/><rect class="cls-3" x="67" y="68" width="138" height="138" rx="7.34" ry="7.34"/><rect class="cls-4" x="72.5" y="73.5" width="28.68" height="28.68" rx="4.42" ry="4.42"/><rect class="cls-4" x="105.27" y="73.5" width="28.68" height="28.68" rx="4.42" ry="4.42"/><rect class="cls-4" x="138.05" y="73.5" width="28.68" height="28.68" rx="4.42" ry="4.42"/><rect class="cls-4" x="170.82" y="73.5" width="28.68" height="28.68" rx="4.42" ry="4.42"/><rect class="cls-4" x="72.5" y="106.27" width="28.68" height="28.68" rx="4.42" ry="4.42"/><rect class="cls-4" x="105.27" y="106.27" width="28.68" height="28.68" rx="4.42" ry="4.42"/><rect class="cls-4" x="138.05" y="106.27" width="28.68" height="28.68" rx="4.42" ry="4.42"/><rect class="cls-4" x="170.82" y="106.27" width="28.68" height="28.68" rx="4.42" ry="4.42"/><rect class="cls-4" x="72.5" y="139.05" width="28.68" height="28.68" rx="4.42" ry="4.42"/><rect class="cls-4" x="105.27" y="139.05" width="28.68" height="28.68" rx="4.42" ry="4.42"/><rect class="cls-4" x="138.05" y="139.05" width="28.68" height="28.68" rx="4.42" ry="4.42"/><rect class="cls-4" x="170.82" y="139.05" width="28.68" height="28.68" rx="4.42" ry="4.42"/><rect class="cls-4" x="72.5" y="171.82" width="28.68" height="28.68" rx="4.42" ry="4.42"/><rect class="cls-4" x="105.27" y="171.82" width="28.68" height="28.68" rx="4.42" ry="4.42"/><rect class="cls-4" x="138.05" y="171.82" width="28.68" height="28.68" rx="4.42" ry="4.42"/><rect class="cls-4" x="170.82" y="171.82" width="28.68" height="28.68" rx="4.42" ry="4.42"/><line class="cls-5" x1="27" y1="170.5" x2="27" y2="202.5"/><circle class="cls-2" cx="39" cy="88" r="18"/><line class="cls-6" x1="44.51" y1="93.51" x2="50.74" y2="99.74"/><rect class="cls-4" x="41" y="116" width="16" height="9" rx="3.51" ry="3.51"/><rect class="cls-4" x="19" y="116" width="16" height="9" rx="3.51" ry="3.51"/><rect class="cls-7" x="41" y="129" width="16" height="9" rx="3.51" ry="3.51"/><rect class="cls-4" x="19" y="129" width="16" height="9" rx="3.51" ry="3.51"/><rect class="cls-7" x="41" y="142" width="16" height="9" rx="3.51" ry="3.51"/><rect class="cls-7" x="19" y="142" width="16" height="9" rx="3.51" ry="3.51"/><rect class="cls-8" x="19" y="182" width="16" height="9" rx="3.51" ry="3.51"/><rect class="cls-9" x="24" y="24" width="73" height="29" rx="2.19" ry="2.19"/><g class="cls-10"><rect class="cls-2" x="63" y="48" width="6" height="2"/></g><g class="cls-10"><rect class="cls-2" x="63" y="44" width="6" height="2"/></g><g class="cls-10"><rect class="cls-2" x="75" y="48" width="6" height="2"/></g><g class="cls-10"><rect class="cls-2" x="75" y="44" width="6" height="2"/></g><g class="cls-10"><rect class="cls-2" x="75" y="40" width="6" height="2"/></g><g class="cls-10"><rect class="cls-2" x="75" y="36" width="6" height="2"/></g><g class="cls-10"><rect class="cls-2" x="75" y="32" width="6" height="2"/></g><g class="cls-10"><rect class="cls-2" x="75" y="28" width="6" height="2"/></g><g class="cls-10"><rect class="cls-2" x="87" y="48" width="6" height="2"/></g><g class="cls-10"><rect class="cls-2" x="87" y="44" width="6" height="2"/></g><g class="cls-10"><rect class="cls-2" x="87" y="40" width="6" height="2"/></g><g class="cls-10"><rect class="cls-2" x="87" y="36" width="6" height="2"/></g></svg>