<svg id="Layer_1" data-name="Layer 1" xmlns="http://www.w3.org/2000/svg" viewBox="0 0 91 91"><defs><style>.cls-1{fill:#fff;}.cls-2{fill:#ea4600;}</style></defs><title>akai-speak</title><path class="cls-1" d="M45.5,0A45.5,45.5,0,0,1,83,71.26V83H71.26A45.5,45.5,0,1,1,45.5,0Z"/><path class="cls-2" d="M12.82,40a3.11,3.11,0,0,1-1.54-1.15,3.56,3.56,0,0,1-.56-2.08,3.34,3.34,0,0,1,1-2.73,4.18,4.18,0,0,1,2.75-.86h4.78V44.5h-2.9V40.32h-.8L13.53,44.5H10.22Zm3.59-1.76v-3H15.24a1.94,1.94,0,0,0-1.28.36,1.44,1.44,0,0,0-.42,1.15,1.45,1.45,0,0,0,.38,1.13,1.74,1.74,0,0,0,1.18.34Z"/><path class="cls-2" d="M25.27,42.32h.94a11.25,11.25,0,0,0,.8-2.7,22.46,22.46,0,0,0,.28-3.87V33.2h7.64v9.11h1.28v4.81h-2.6V44.5H27.88v2.63h-2.6Zm6.85,0V35.39H30v1q0,.67-.06,1.47t-.19,1.6q-.13.8-.3,1.54A9.11,9.11,0,0,1,29,42.32Z"/><path class="cls-2" d="M41.3,44.73a4.74,4.74,0,0,1-2.46-.54,3.34,3.34,0,0,1-1.3-1.39A5.37,5.37,0,0,1,37,40.89q-.09-1.07-.09-2.14a14.72,14.72,0,0,1,.16-2.18,5.27,5.27,0,0,1,.63-1.87,3.42,3.42,0,0,1,1.35-1.3,4.9,4.9,0,0,1,2.35-.48,4.57,4.57,0,0,1,2.07.41,3.12,3.12,0,0,1,1.27,1.16,4.83,4.83,0,0,1,.63,1.81,15.14,15.14,0,0,1,.17,2.36v.65H39.83v.9a6.31,6.31,0,0,0,.07,1,3.2,3.2,0,0,0,.24.84,1.59,1.59,0,0,0,.44.59,1,1,0,0,0,.67.22,1.18,1.18,0,0,0,1.07-.52,3.87,3.87,0,0,0,.46-1.6h2.6a4.56,4.56,0,0,1-1,3A4,4,0,0,1,41.3,44.73Zm1.49-7.16q0-.65-.08-1.14a2.93,2.93,0,0,0-.22-.84,1.17,1.17,0,0,0-.44-.52,1.34,1.34,0,0,0-.72-.18,1.23,1.23,0,0,0-.72.2,1.44,1.44,0,0,0-.45.52,2.6,2.6,0,0,0-.24.72,4.37,4.37,0,0,0-.07.8v.44Z"/><path class="cls-2" d="M47.55,44.67a6.36,6.36,0,0,1-.78-.05,5.92,5.92,0,0,1-.67-.12V42.34l.26,0h.26a1.84,1.84,0,0,0,.54-.07.81.81,0,0,0,.43-.38,3.06,3.06,0,0,0,.33-.89,12.63,12.63,0,0,0,.23-1.61q.09-1,.14-2.54t0-3.69h7.83V44.5h-2.9V35.39H51.08a41.43,41.43,0,0,1-.23,4.92,10.06,10.06,0,0,1-.67,2.8,2.35,2.35,0,0,1-1.1,1.26A3.72,3.72,0,0,1,47.55,44.67Z"/><path class="cls-2" d="M60.45,44.73a2.75,2.75,0,0,1-1.28-.27,2.29,2.29,0,0,1-.84-.72,3.14,3.14,0,0,1-.46-1,4.57,4.57,0,0,1-.15-1.15,5,5,0,0,1,.17-1.38,2.66,2.66,0,0,1,.51-1,2.81,2.81,0,0,1,.88-.68A6.93,6.93,0,0,1,60.57,38l1.64-.44a1.75,1.75,0,0,0,.9-.46,1.29,1.29,0,0,0,.25-.86,1.55,1.55,0,0,0-.3-1,1.29,1.29,0,0,0-1-.37,1.25,1.25,0,0,0-1,.4,1.61,1.61,0,0,0-.34,1.07v.31h-2.6v-.27a3.84,3.84,0,0,1,.31-1.64,2.87,2.87,0,0,1,.85-1.08,3.38,3.38,0,0,1,1.26-.59A6.45,6.45,0,0,1,62,32.91a7.18,7.18,0,0,1,2.09.25,2.87,2.87,0,0,1,1.25.71A2.4,2.4,0,0,1,66,35a5.85,5.85,0,0,1,.16,1.4v5.94a8,8,0,0,0,.07,1.24,4.31,4.31,0,0,0,.28.94H63.72a2.38,2.38,0,0,1-.22-.58q-.07-.3-.14-.6h0a2.46,2.46,0,0,1-1.17,1.14A4.69,4.69,0,0,1,60.45,44.73Zm1.13-1.91a2.12,2.12,0,0,0,.61-.09,1.7,1.7,0,0,0,.58-.3,1.64,1.64,0,0,0,.43-.54,1.75,1.75,0,0,0,.17-.81V38.85a2.59,2.59,0,0,1-.63.37,4.06,4.06,0,0,1-.61.2,2.23,2.23,0,0,0-1.26.63,1.78,1.78,0,0,0-.38,1.2,2.29,2.29,0,0,0,.25,1.11A.88.88,0,0,0,61.58,42.82Z"/><path class="cls-2" d="M76.81,44.73a5.91,5.91,0,0,1-2-.3,3,3,0,0,1-1.34-.93,4.14,4.14,0,0,1-.77-1.58,10,10,0,0,1-.29-2.23H71.09V44.5H68.2V33.2h2.9v4.26h1.3a5.88,5.88,0,0,1,1.23-3.39,4,4,0,0,1,3.18-1.17,5.4,5.4,0,0,1,2.16.38,3.15,3.15,0,0,1,1.37,1.11A4.83,4.83,0,0,1,81,36.26a14.23,14.23,0,0,1,.21,2.59A12.67,12.67,0,0,1,81,41.42a4.84,4.84,0,0,1-.76,1.84,3.23,3.23,0,0,1-1.38,1.1A5.27,5.27,0,0,1,76.81,44.73Zm0-1.91A1.22,1.22,0,0,0,78,41.9a9.86,9.86,0,0,0,.33-3,9.87,9.87,0,0,0-.33-3,1.22,1.22,0,0,0-1.21-.92,1.16,1.16,0,0,0-.84.29,1.86,1.86,0,0,0-.46.82,5.58,5.58,0,0,0-.2,1.26q0,.74,0,1.6t0,1.6a5.57,5.57,0,0,0,.2,1.26,1.85,1.85,0,0,0,.46.82A1.16,1.16,0,0,0,76.82,42.82Z"/><path class="cls-2" d="M27.71,52.2h2.9v9.11H33V52.2h2.9v9.11h2.42V52.2h2.9V63.5H27.71Z"/><path class="cls-2" d="M43.17,67.13V65a4.6,4.6,0,0,0,.76.06,1.4,1.4,0,0,0,1.14-.42,2,2,0,0,0,.41-1.11L42.3,52.2h3L47,60h0l1.47-7.81h2.9L48.69,62.74A20.23,20.23,0,0,1,48,65a3.82,3.82,0,0,1-.82,1.32A2.38,2.38,0,0,1,46,67a7.38,7.38,0,0,1-1.67.16Z"/><path class="cls-2" d="M52.49,52.2h4.14l1.76,7.56,1.76-7.56h4.14V63.5H61.58v-8l-2,8H57.19l-2-8v8H52.49Z"/></svg>