<svg id="Layer_1" data-name="Layer 1" xmlns="http://www.w3.org/2000/svg" viewBox="0 0 91 91"><defs><style>.cls-1{fill:#fff;}.cls-2{fill:#ea4600;}</style></defs><title>boss-speak</title><path class="cls-1" d="M45.5,0A45.5,45.5,0,0,0,8,71.26V83H19.74A45.5,45.5,0,1,0,45.5,0Z"/><path class="cls-2" d="M17.2,40.29a9,9,0,0,1,.32-2.46.54.54,0,0,1,.66,0,4.18,4.18,0,0,0,.49,1.78A2.45,2.45,0,0,0,20.89,41a2,2,0,0,0,2-2.06,2.79,2.79,0,0,0-1.43-2.26l-.42-.31a3.74,3.74,0,0,1-1.85-2.84c0-2.18,1.8-3.55,4.17-3.54a5.48,5.48,0,0,1,3.11.92,12.41,12.41,0,0,0-.75,2.26.48.48,0,0,1-.66,0,1.85,1.85,0,0,0-1.8-2.4,1.94,1.94,0,0,0-2,1.84c0,.53.25,1.19,1.44,2l.53.36a3.83,3.83,0,0,1,1.94,3.18c0,2.09-1.6,3.64-4.52,3.64A4,4,0,0,1,17.2,40.29Z"/><path class="cls-2" d="M30.37,35.18a1.48,1.48,0,0,1-.08.48l-1.68,4.13c-.12.31-.07.46.14.46a1.19,1.19,0,0,0,.65-.36c1.41-1.21,2.63-3.69,3.4-5.29a1.43,1.43,0,0,1,.63-.14,1.89,1.89,0,0,1,1.19.37c-.65,1.67-1.34,3.35-1.94,5-.07.2-.14.48.08.48a4.41,4.41,0,0,0,1.55-1.1.34.34,0,0,1,.31.39A5,5,0,0,1,31,41.74a.6.6,0,0,1-.58-.87l1-2.41h0c-.9,1.27-2.77,3.28-4.13,3.28a.88.88,0,0,1-.93-.88,3,3,0,0,1,.25-1L28,36.3c.08-.22.07-.44-.07-.44-.34,0-1,.66-1.51,1a.36.36,0,0,1-.29-.41,5.28,5.28,0,0,1,3.5-2A.8.8,0,0,1,30.37,35.18Z"/><path class="cls-2" d="M42.22,36.94a5.29,5.29,0,0,1-1.58,3.6,4.09,4.09,0,0,1-2.89,1.19,2.25,2.25,0,0,1-2.46-2.36,5.4,5.4,0,0,1,1.79-3.84,3.93,3.93,0,0,1,2.65-1.07A2.32,2.32,0,0,1,42.22,36.94Zm-3.3-1.09a8.61,8.61,0,0,0-1.68,4.44c0,.43.2.7.53.7s.8-.39,1.26-1.14a9.55,9.55,0,0,0,1.29-3.93c0-.36-.1-.71-.47-.71S39.28,35.41,38.93,35.86Z"/><path class="cls-2" d="M47,35.53l-.8,2.09h.07c1-1.38,2.31-3.16,4-3.16a1,1,0,0,1,1.07,1A4.66,4.66,0,0,1,51,37c-.32.85-.75,1.84-1.26,3-.1.24-.07.37.07.37a4.26,4.26,0,0,0,1.51-1.16.29.29,0,0,1,.34.32,4.52,4.52,0,0,1-3.57,2.19.75.75,0,0,1-.73-.66,2.69,2.69,0,0,1,.25-.92c.51-1.19,1-2.36,1.45-3.55a2.6,2.6,0,0,0,.22-.8.21.21,0,0,0-.22-.24c-.24,0-.7.32-1.29,1.09a27.63,27.63,0,0,0-2.63,4.78c-.12.24-.44.31-.82.31s-1.09-.14-.92-.68c.08-.24,1.38-3.88,1.63-4.61.12-.34.14-.61-.07-.61a3.31,3.31,0,0,0-1.44.92.31.31,0,0,1-.31-.27,4.14,4.14,0,0,1,3.25-2C47.2,34.46,47.14,35.14,47,35.53Z"/><path class="cls-2" d="M58.3,35.09l.39-.8a.86.86,0,0,1,.46-.12,2,2,0,0,1,.63.1,1.08,1.08,0,0,1,.63.44c-.65,1.6-1.39,3.48-2,5.37-.07.22-.09.36,0,.36A4,4,0,0,0,60,39.39a.33.33,0,0,1,.32.37,4.77,4.77,0,0,1-3.4,2,.67.67,0,0,1-.66-.66,2.35,2.35,0,0,1,.19-.71L57,39.07h-.07c-1,1.33-2.63,2.67-3.88,2.67a1.09,1.09,0,0,1-1-1.05,7.81,7.81,0,0,1,2.55-4.52,4.73,4.73,0,0,1,3-1.46A1.33,1.33,0,0,1,58.3,35.09Zm-1.12.36c-.25,0-.56.15-1.14.88A7.7,7.7,0,0,0,54.36,40v.15c0,.17.1.27.24.27.37,0,1.31-1,1.82-1.68a13.32,13.32,0,0,0,1.48-2.69C57.69,35.6,57.46,35.45,57.18,35.45Z"/><path class="cls-2" d="M67.82,35.48c0,1-.66,1.67-1.12,1.67s-.41-.34-.49-.78c-.05-.29-.13-.39-.27-.39-.29,0-.73.7-1.17,1.48a34.88,34.88,0,0,0-1.78,4c-.1.24-.44.31-.82.31s-1.11-.14-.94-.68c.49-1.56,1.12-3.35,1.6-4.81.1-.32.12-.54-.07-.54a3.06,3.06,0,0,0-1.41,1,.34.34,0,0,1-.31-.39,3.49,3.49,0,0,1,2.67-1.89c1,0,1,.76.73,1.63l-.61,1.8h.08a18.94,18.94,0,0,1,1.41-2.26c.53-.71,1.05-1.17,1.67-1.17S67.82,34.79,67.82,35.48Z"/><path class="cls-2" d="M73.95,35.82c0,1.75-2.91,2.57-4.28,2.92a2.68,2.68,0,0,0-.08.82c0,.46.22.94.73.94a3.49,3.49,0,0,0,2.21-1.19.36.36,0,0,1,.34.39,4.36,4.36,0,0,1-3.71,2,1.76,1.76,0,0,1-1.82-2,5.89,5.89,0,0,1,2.29-4.33,4.34,4.34,0,0,1,2.67-1A1.48,1.48,0,0,1,73.95,35.82Zm-3-.17A5.85,5.85,0,0,0,69.8,38a3.5,3.5,0,0,0,1.62-1A2.54,2.54,0,0,0,72,35.6a.36.36,0,0,0-.32-.39A1.08,1.08,0,0,0,71,35.65Z"/><path class="cls-2" d="M11.81,57A3.09,3.09,0,0,1,12,56L15,47.57c.21-.61.19-.8-.12-1l-.48-.27a.34.34,0,0,1,.08-.41,14.09,14.09,0,0,1,3.13-.58c.12,0,.17.07.17.17-.26.71-.49,1.33-.8,2.23l-2.79,8.07c-.17.48-.22.78,0,.78s1.36-1,1.77-1.51a.31.31,0,0,1,.32.37,3.7,3.7,0,0,1-3.37,2.28C12,57.74,11.81,57.35,11.81,57Z"/><path class="cls-2" d="M19.94,50.63a.56.56,0,0,1-.65,0l.34-3.48a7,7,0,0,1,.14-1c.15-.54.49-.58,1.12-.58s1.21,0,1.05.58a7.37,7.37,0,0,1-.41,1Z"/><path class="cls-2" d="M27,51.09l.39-.8a.86.86,0,0,1,.46-.12,2,2,0,0,1,.63.1,1.08,1.08,0,0,1,.63.44c-.65,1.6-1.39,3.48-2,5.37-.07.22-.08.36,0,.36a4,4,0,0,0,1.6-1.05.33.33,0,0,1,.32.37,4.77,4.77,0,0,1-3.4,2,.67.67,0,0,1-.66-.66,2.36,2.36,0,0,1,.19-.71l.51-1.31h-.07c-1,1.33-2.63,2.67-3.87,2.67a1.09,1.09,0,0,1-1-1.05,7.81,7.81,0,0,1,2.55-4.52,4.73,4.73,0,0,1,3-1.46A1.33,1.33,0,0,1,27,51.09Zm-1.12.36c-.25,0-.56.15-1.14.88A7.7,7.7,0,0,0,23.1,56v.15c0,.17.1.27.24.27.37,0,1.31-1,1.82-1.68a13.33,13.33,0,0,0,1.48-2.69C26.43,51.6,26.19,51.45,25.92,51.45Z"/><path class="cls-2" d="M36.56,51.48c0,1-.66,1.67-1.12,1.67s-.41-.34-.49-.78c-.05-.29-.14-.39-.27-.39-.29,0-.73.7-1.17,1.48a35.24,35.24,0,0,0-1.79,4c-.1.24-.44.31-.82.31s-1.1-.14-.93-.68c.49-1.56,1.12-3.35,1.6-4.81.1-.32.12-.54-.07-.54a3.05,3.05,0,0,0-1.41,1,.34.34,0,0,1-.31-.39,3.49,3.49,0,0,1,2.67-1.89c1,0,1,.76.73,1.63l-.61,1.8h.09a19,19,0,0,1,1.41-2.26c.53-.71,1.05-1.17,1.67-1.17S36.56,50.79,36.56,51.48Z"/><path class="cls-2" d="M40.85,50.75a3.28,3.28,0,0,1,.48-.05c2.14,0,2.84,1.16,2.84,2.5a4.72,4.72,0,0,1-1.27,3,4.84,4.84,0,0,1-3.5,1.58,2,2,0,0,1-.7-.17c-.12,0-.19.12-.24.29l-.77,2.26c-.19.58-.22,1,.43,1.05l.71.07c.2.08.17.51-.08.58H37.53c-1.05,0-2.09.07-3.5.19a.39.39,0,0,1-.08-.59l.54-.08c.71-.12.88-.39,1.28-1.53l2.69-7.89a9.26,9.26,0,0,0-1.77.73.34.34,0,0,1-.2-.49A6.9,6.9,0,0,1,38.74,51l.49-1.27a1.2,1.2,0,0,1,.82-.24c.6,0,1.05.15,1.14.32ZM39.08,56a.63.63,0,0,0,.08.7.76.76,0,0,0,.53.27,1.6,1.6,0,0,0,1-.68A5.54,5.54,0,0,0,42,53c0-1-.54-1.39-1.12-1.39l-.27,0Z"/><path class="cls-2" d="M51.66,51.82c0,1.75-2.91,2.57-4.28,2.92a2.68,2.68,0,0,0-.08.82c0,.46.22.94.73.94a3.49,3.49,0,0,0,2.21-1.19.36.36,0,0,1,.34.39,4.36,4.36,0,0,1-3.71,2,1.76,1.76,0,0,1-1.82-2,5.89,5.89,0,0,1,2.29-4.33,4.34,4.34,0,0,1,2.67-1A1.48,1.48,0,0,1,51.66,51.82Zm-3-.17A5.85,5.85,0,0,0,47.51,54a3.5,3.5,0,0,0,1.62-1,2.54,2.54,0,0,0,.61-1.43.36.36,0,0,0-.32-.39A1.08,1.08,0,0,0,48.68,51.65Z"/><path class="cls-2" d="M50.35,60.37c0-1.33,1.9-1.94,2.82-2.23-.34-.24-.66-.48-.66-.92s.7-1.07,1.07-1.34v0a1.83,1.83,0,0,1-1.48-2A3.74,3.74,0,0,1,56,50.46a2.27,2.27,0,0,1,.83.17c.27.08.49.27.65.27a2.3,2.3,0,0,0,.7-.14,2.59,2.59,0,0,1,.83-.2c.31,0,.58.2.58.7s-.37.7-.56.7a1.33,1.33,0,0,1-.48-.1,1.54,1.54,0,0,0-.42-.1c-.07,0-.14.07-.12.19s.05.36.05.48a3.63,3.63,0,0,1-3.71,3.5.7.7,0,0,0-.26.41c0,.24.61.59,1.19.88,1,.48,2.53,1.22,2.53,2.57,0,1.8-2.89,2.29-4.3,2.29C52.34,62.07,50.35,61.73,50.35,60.37ZM53,59a1.4,1.4,0,0,0-.54,1c0,.78.9,1.22,2,1.22s1.63-.34,1.63-.87a1.52,1.52,0,0,0-.83-1.14,4,4,0,0,0-1.33-.65A1.91,1.91,0,0,0,53,59Zm2-7.07a5.9,5.9,0,0,0-1.05,2.77.43.43,0,0,0,.46.49c.37,0,.82-.51,1.22-1.26a6.19,6.19,0,0,0,.75-2.16c0-.36-.21-.54-.43-.54S55.35,51.43,55,51.91Z"/><path class="cls-2" d="M57.42,60.37c0-1.33,1.9-1.94,2.82-2.23-.34-.24-.66-.48-.66-.92s.7-1.07,1.07-1.34v0a1.82,1.82,0,0,1-1.48-2,3.74,3.74,0,0,1,3.91-3.43,2.27,2.27,0,0,1,.83.17c.27.08.49.27.65.27a2.3,2.3,0,0,0,.7-.14,2.59,2.59,0,0,1,.83-.2c.31,0,.58.2.58.7s-.37.7-.56.7a1.33,1.33,0,0,1-.48-.1,1.53,1.53,0,0,0-.42-.1c-.07,0-.14.07-.12.19s.05.36.05.48a3.63,3.63,0,0,1-3.71,3.5.7.7,0,0,0-.25.41c0,.24.61.59,1.19.88,1,.48,2.53,1.22,2.53,2.57,0,1.8-2.89,2.29-4.3,2.29C59.41,62.07,57.42,61.73,57.42,60.37ZM60.07,59a1.4,1.4,0,0,0-.54,1c0,.78.9,1.22,2,1.22s1.63-.34,1.63-.87a1.52,1.52,0,0,0-.83-1.14A4,4,0,0,0,61,58.59,1.91,1.91,0,0,0,60.07,59Zm2-7.07A5.91,5.91,0,0,0,61,54.68a.43.43,0,0,0,.46.49c.37,0,.82-.51,1.22-1.26a6.19,6.19,0,0,0,.75-2.16c0-.36-.2-.54-.42-.54S62.42,51.43,62.06,51.91Z"/><path class="cls-2" d="M68.55,56.12c-.07.15-.05.25.07.25a5.16,5.16,0,0,0,1.6-1.07.33.33,0,0,1,.32.41,5.17,5.17,0,0,1-3.57,2,.88.88,0,0,1-.78-.68,2.09,2.09,0,0,1,.2-.73l1.77-4.23c.05-.14.05-.24,0-.24a4.84,4.84,0,0,0-1.51,1,.33.33,0,0,1-.27-.41,5.47,5.47,0,0,1,3.42-2,.84.84,0,0,1,.78.75,2.71,2.71,0,0,1-.22.75Zm1.94-9.38a.9.9,0,0,1,1,1,1.3,1.3,0,0,1-1.29,1.38.94.94,0,0,1-1-1A1.37,1.37,0,0,1,70.49,46.74Z"/><path class="cls-2" d="M78.35,52.94a5.28,5.28,0,0,1-1.58,3.6,4.09,4.09,0,0,1-2.89,1.19,2.25,2.25,0,0,1-2.46-2.36,5.39,5.39,0,0,1,1.78-3.84,3.93,3.93,0,0,1,2.65-1.07A2.32,2.32,0,0,1,78.35,52.94ZM75,51.86a8.63,8.63,0,0,0-1.68,4.44c0,.43.2.7.53.7s.8-.39,1.26-1.14a9.55,9.55,0,0,0,1.29-3.93c0-.36-.1-.71-.48-.71S75.41,51.41,75,51.86Z"/><path class="cls-2" d="M81.53,56.21a1.46,1.46,0,0,1-1.44,1.53,1.12,1.12,0,0,1-1.17-1.19A1.55,1.55,0,0,1,80.39,55,1.12,1.12,0,0,1,81.53,56.21Zm2.29-9a17,17,0,0,1-.75,2L81.17,54a.69.69,0,0,1-.68,0l.61-4.78a19.92,19.92,0,0,1,.3-2c.15-.54.65-.7,1.39-.7S83.91,46.74,83.82,47.22Z"/></svg>