<svg id="Layer_1" data-name="Layer 1" xmlns="http://www.w3.org/2000/svg" viewBox="0 0 246 170"><defs><style>.cls-1{fill:#d1d1d1;}.cls-2{fill:#008cff;}.cls-3{fill:#333;}.cls-4,.cls-5,.cls-7{fill:none;stroke-linecap:round;stroke-miterlimit:10;stroke-width:2px;}.cls-4,.cls-7{stroke:#000;}.cls-4{opacity:0.2;}.cls-5{stroke:#ff9700;}.cls-6{fill:#cae2e5;}.cls-7{opacity:0.24;}.cls-8{opacity:0.43;}.cls-9{fill:#707e7f;}</style></defs><title>boss</title><rect class="cls-1" width="246" height="170" rx="16.47" ry="16.47"/><rect class="cls-2" x="84" y="133" width="21" height="21" rx="4.18" ry="4.18"/><rect class="cls-2" x="107" y="133" width="21" height="21" rx="4.18" ry="4.18"/><rect class="cls-2" x="130" y="133" width="21" height="21" rx="4.18" ry="4.18"/><rect class="cls-2" x="153" y="133" width="21" height="21" rx="4.18" ry="4.18"/><rect class="cls-2" x="176" y="133" width="21" height="21" rx="4.18" ry="4.18"/><rect class="cls-2" x="199" y="133" width="21" height="21" rx="4.18" ry="4.18"/><circle class="cls-3" cx="44.5" cy="129.5" r="24.5"/><line class="cls-4" x1="209.5" y1="14.5" x2="209.5" y2="46.5"/><rect class="cls-3" x="201.5" y="23.5" width="16" height="9" rx="3.51" ry="3.51"/><line class="cls-5" x1="52" y1="122" x2="60.49" y2="113.51"/><circle class="cls-3" cx="149.5" cy="79" r="10.5" transform="translate(-12.07 128.85) rotate(-45)"/><line class="cls-5" x1="149.5" y1="74.45" x2="149.5" y2="69.31"/><path class="cls-3" d="M19.5,0V75.72A12.81,12.81,0,0,0,32.28,88.5h79.45A12.81,12.81,0,0,0,124.5,75.72V0Z"/><rect class="cls-6" x="30" y="16" width="85" height="63" rx="3.95" ry="3.95"/><line class="cls-7" x1="84" y1="113" x2="220" y2="113"/><line class="cls-7" x1="84" y1="106" x2="220" y2="106"/><line class="cls-4" x1="179.5" y1="14.5" x2="179.5" y2="46.5"/><rect class="cls-3" x="171.5" y="33.5" width="16" height="9" rx="3.51" ry="3.51"/><line class="cls-4" x1="149.5" y1="14.5" x2="149.5" y2="46.5"/><rect class="cls-3" x="141.5" y="13.5" width="16" height="9" rx="3.51" ry="3.51"/><circle class="cls-3" cx="179.5" cy="79" r="10.5"/><line class="cls-5" x1="176.29" y1="82.21" x2="172.65" y2="85.85"/><circle class="cls-3" cx="209.5" cy="79" r="10.5" transform="translate(5.5 171.28) rotate(-45)"/><line class="cls-5" x1="214.05" y1="79" x2="219.19" y2="79"/><g class="cls-8"><path class="cls-9" d="M105,28h0V27H39V69h66V68h0ZM73,45h6v6H73Zm-2,6H65V45h6Zm10-6h6v6H81Zm0-2V37h6v6Zm-2,0H73V37h6Zm-8,0H65V37h6Zm-8,0H57V37h6Zm0,2v6H57V45Zm0,8v6H57V53Zm2,0h6v6H65Zm8,0h6v6H73Zm8,0h6v6H81Zm8,0h6v6H89Zm0-2V45h6v6Zm0-8V37h6v6Zm0-8V29h6v6Zm-2,0H81V29h6Zm-8,0H73V29h6Zm-8,0H65V29h6Zm-8,0H57V29h6Zm-8,0H49V29h6Zm0,2v6H49V37Zm0,8v6H49V45Zm0,8v6H49V53Zm0,8v6H49V61Zm2,0h6v6H57Zm8,0h6v6H65Zm8,0h6v6H73Zm8,0h6v6H81Zm8,0h6v6H89Zm8,0h6v6H97Zm0-2V53h6v6Zm0-8V45h6v6Zm0-8V37h6v6Zm0-8V29h6v6ZM41,29h6v6H41Zm0,8h6v6H41Zm0,8h6v6H41Zm0,8h6v6H41Zm0,8h6v6H41Z"/><circle class="cls-9" cx="52" cy="32" r="1.5"/><circle class="cls-9" cx="44" cy="32" r="1.5"/><circle class="cls-9" cx="76" cy="32" r="1.5"/><circle class="cls-9" cx="76" cy="40" r="1.5"/><circle class="cls-9" cx="44" cy="56" r="1.5"/><circle class="cls-9" cx="60" cy="56" r="1.5"/><circle class="cls-9" cx="68" cy="56" r="1.5"/><circle class="cls-9" cx="76" cy="56" r="1.5"/><circle class="cls-9" cx="92" cy="56" r="1.5"/><circle class="cls-9" cx="100" cy="56" r="1.5"/></g></svg>