<svg id="Layer_1" data-name="Layer 1" xmlns="http://www.w3.org/2000/svg" viewBox="0 0 91 91"><defs><style>.cls-1,.cls-6{fill:#fff;}.cls-2,.cls-4{fill:#ea4600;}.cls-2,.cls-3,.cls-5,.cls-6{stroke:#ea4600;stroke-miterlimit:10;}.cls-2{stroke-width:3px;}.cls-3,.cls-5{fill:none;stroke-width:2px;}.cls-5{stroke-linecap:round;}</style></defs><title>drums-speak</title><path class="cls-1" d="M45.5,0A45.5,45.5,0,0,0,8,71.26V83H19.74A45.5,45.5,0,1,0,45.5,0Z"/><path class="cls-2" d="M45.7,39H23.3C19.82,39,17,46.39,17,55.5S19.82,72,23.3,72H45.7c3.48,0,6.3-7.39,6.3-16.5S49.18,39,45.7,39Z"/><ellipse class="cls-1" cx="45.7" cy="55.5" rx="6.3" ry="16.5"/><line class="cls-3" x1="46" y1="72" x2="46" y2="61"/><circle class="cls-4" cx="46" cy="60" r="3"/><line class="cls-5" x1="58" y1="15.5" x2="58" y2="52.5"/><path class="cls-6" d="M61.93,19.46l-.47-1.19a48.82,48.82,0,0,0-6.9,0l-.47,1.19s-2.1.05-2.16.07L37,23.76a.9.9,0,0,0,.3,1.74H78.72a.9.9,0,0,0,.3-1.74L64.08,19.53C64,19.51,62,19.49,61.93,19.46Z"/><path class="cls-1" d="M34.6,55.5c0-7.82,2.08-14.37,4.86-16.07a.23.23,0,0,0-.13-.43H28.1a3.67,3.67,0,0,0-2.8,1.72c-2.07,2.7-3.5,8.3-3.5,14.78s1.43,12.08,3.5,14.78A3.67,3.67,0,0,0,28.1,72H39.34a.23.23,0,0,0,.13-.43C36.68,69.87,34.6,63.32,34.6,55.5Z"/><polygon class="cls-4" points="61 18 55 18 53.51 19.75 51 20 65 20 62.66 19.83 61 18"/><path class="cls-6" d="M54.07,34.54l.47,1.19a48.82,48.82,0,0,0,6.9,0l.47-1.19s2.1-.05,2.16-.07L79,30.24a.9.9,0,0,0-.3-1.74H37.28a.9.9,0,0,0-.3,1.74l14.94,4.23C52,34.49,54,34.51,54.07,34.54Z"/><polygon class="cls-4" points="55 36 61 36 62.49 34.25 65 34 51 34 53.34 34.17 55 36"/></svg>