<svg id="Layer_1" data-name="Layer 1" xmlns="http://www.w3.org/2000/svg" width="247.563" height="171.0801" viewBox="0 0 247.563 171.0801">
  <defs>
    <style>
      .cls-1 {
        fill: #d1d1d1;
      }

      .cls-2 {
        fill: #008cff;
      }

      .cls-3 {
        fill: #333;
      }

      .cls-4, .cls-5, .cls-7 {
        fill: none;
        stroke-linecap: round;
        stroke-miterlimit: 10;
        stroke-width: 2.0127px;
      }

      .cls-4, .cls-7 {
        stroke: #000;
      }

      .cls-4 {
        opacity: 0.2;
      }

      .cls-5 {
        stroke: #ff9700;
      }

      .cls-6 {
        fill: #cae2e5;
      }

      .cls-7 {
        opacity: 0.24;
      }

      .cls-8 {
        opacity: 0.43;
      }

      .cls-9 {
        fill: #707e7f;
      }
    </style>
  </defs>
  <title>vid-kid-modular-output-drum</title>
  <g>
    <rect class="cls-1" width="247.563" height="171.0801" rx="16.4707" ry="16.4707"/>
    <g>
      <rect class="cls-2" x="84.5337" y="133.8451" width="21.1334" height="21.1334" rx="4.1826" ry="4.1826"/>
      <rect class="cls-2" x="107.6799" y="133.8451" width="21.1334" height="21.1334" rx="4.1826" ry="4.1826"/>
      <rect class="cls-2" x="130.826" y="133.8451" width="21.1334" height="21.1334" rx="4.1826" ry="4.1826"/>
      <rect class="cls-2" x="153.9721" y="133.8451" width="21.1334" height="21.1334" rx="4.1826" ry="4.1826"/>
      <rect class="cls-2" x="177.1183" y="133.8451" width="21.1334" height="21.1334" rx="4.1826" ry="4.1826"/>
      <rect class="cls-2" x="200.2644" y="133.8451" width="21.1334" height="21.1334" rx="4.1826" ry="4.1826"/>
    </g>
    <circle class="cls-3" cx="44.7827" cy="130.3228" r="24.6557"/>
    <line class="cls-4" x1="210.8311" y1="14.5921" x2="210.8311" y2="46.7954"/>
    <rect class="cls-3" x="202.7803" y="23.6493" width="16.1017" height="9.0572" rx="3.5085" ry="3.5085"/>
    <line class="cls-5" x1="52.3304" y1="122.7752" x2="60.8696" y2="114.236"/>
    <g>
      <circle class="cls-3" cx="150.4499" cy="79.5019" r="10.5667" transform="translate(-12.1506 129.6697) rotate(-45)"/>
      <line class="cls-5" x1="150.4499" y1="74.9274" x2="150.4499" y2="69.7518"/>
    </g>
    <path class="cls-3" d="M19.6239,0V76.2038A12.8963,12.8963,0,0,0,32.4824,89.0623h79.95A12.8963,12.8963,0,0,0,125.291,76.2038V0Z"/>
    <rect class="cls-6" x="30.1906" y="16.1017" width="85.5401" height="63.4003" rx="3.9535" ry="3.9535"/>
    <line class="cls-7" x1="84.5337" y1="113.718" x2="221.3978" y2="113.718"/>
    <line class="cls-7" x1="84.5337" y1="106.6735" x2="221.3978" y2="106.6735"/>
    <line class="cls-4" x1="180.6405" y1="14.5921" x2="180.6405" y2="46.7954"/>
    <rect class="cls-3" x="172.5897" y="33.7129" width="16.1017" height="9.0572" rx="3.5085" ry="3.5085"/>
    <line class="cls-4" x1="150.4499" y1="14.5921" x2="150.4499" y2="46.7954"/>
    <rect class="cls-3" x="142.3991" y="13.5858" width="16.1017" height="9.0572" rx="3.5085" ry="3.5085"/>
    <g>
      <circle class="cls-3" cx="180.6405" cy="79.5019" r="10.5667"/>
      <line class="cls-5" x1="177.4058" y1="82.7367" x2="173.7461" y2="86.3963"/>
    </g>
    <g>
      <circle class="cls-3" cx="210.8311" cy="79.5019" r="10.5667" transform="translate(5.5346 172.3657) rotate(-45)"/>
      <line class="cls-5" x1="215.4057" y1="79.5019" x2="220.5812" y2="79.5019"/>
    </g>
    <g class="cls-8">
      <path class="cls-9" d="M105.6671,28.1779h0V27.1714H39.2478V69.4382h66.4193V68.4321h0ZM73.4638,45.2857h6.0381v6.0381H73.4638Zm-2.0127,6.0381H65.413V45.2857h6.0381Zm10.0635-6.0381h6.0381v6.0381H81.5147Zm0-2.0127V37.2349h6.0381V43.273Zm-2.0127,0H73.4638V37.2349h6.0381Zm-8.0508,0H65.413V37.2349h6.0381Zm-8.0508,0H57.3622V37.2349H63.4Zm0,2.0127v6.0381H57.3622V45.2857Zm0,8.0508v6.0381H57.3622V53.3366Zm2.0127,0h6.0381v6.0381H65.413Zm8.0508,0h6.0381v6.0381H73.4638Zm8.0508,0h6.0381v6.0381H81.5147Zm8.0508,0h6.0381v6.0381H89.5655Zm0-2.0127V45.2857h6.0381v6.0381Zm0-8.0508V37.2349h6.0381V43.273Zm0-8.0508V29.1841h6.0381v6.0381Zm-2.0127,0H81.5147V29.1841h6.0381Zm-8.0508,0H73.4638V29.1841h6.0381Zm-8.0508,0H65.413V29.1841h6.0381Zm-8.0508,0H57.3622V29.1841H63.4Zm-8.0508,0H49.3113V29.1841h6.0381Zm0,2.0127V43.273H49.3113V37.2349Zm0,8.0508v6.0381H49.3113V45.2857Zm0,8.0508v6.0381H49.3113V53.3366Zm0,8.0508v6.0381H49.3113V61.3874Zm2.0127,0H63.4v6.0381H57.3622Zm8.0508,0h6.0381v6.0381H65.413Zm8.0508,0h6.0381v6.0381H73.4638Zm8.0508,0h6.0381v6.0381H81.5147Zm8.0508,0h6.0381v6.0381H89.5655Zm8.0508,0h6.0381v6.0381H97.6163Zm0-2.0127V53.3366h6.0381v6.0381Zm0-8.0508V45.2857h6.0381v6.0381Zm0-8.0508V37.2349h6.0381V43.273Zm0-8.0508V29.1841h6.0381v6.0381ZM41.2605,29.1841h6.0381v6.0381H41.2605Zm0,8.0508h6.0381V43.273H41.2605Zm0,8.0508h6.0381v6.0381H41.2605Zm0,8.0508h6.0381v6.0381H41.2605Zm0,8.0508h6.0381v6.0381H41.2605Z"/>
      <circle class="cls-9" cx="52.3304" cy="32.2033" r="1.5095"/>
      <circle class="cls-9" cx="44.2796" cy="32.2033" r="1.5095"/>
      <circle class="cls-9" cx="76.4829" cy="32.2033" r="1.5095"/>
      <circle class="cls-9" cx="76.4829" cy="40.2542" r="1.5095"/>
      <circle class="cls-9" cx="44.2796" cy="56.3558" r="1.5095"/>
      <circle class="cls-9" cx="60.3812" cy="56.3558" r="1.5095"/>
      <circle class="cls-9" cx="68.4321" cy="56.3558" r="1.5095"/>
      <circle class="cls-9" cx="76.4829" cy="56.3558" r="1.5095"/>
      <circle class="cls-9" cx="92.5845" cy="56.3558" r="1.5095"/>
      <circle class="cls-9" cx="100.6354" cy="56.3558" r="1.5095"/>
    </g>
  </g>
</svg>
