<svg id="Layer_1" data-name="Layer 1" xmlns="http://www.w3.org/2000/svg" viewBox="0 0 97.68 150.5"><defs><style>.cls-1{fill:#fff;}.cls-2,.cls-3{fill:none;stroke:#000;stroke-miterlimit:10;stroke-width:2px;}.cls-2{stroke-linecap:round;}</style></defs><title>finger</title><path class="cls-1" d="M80.14,147.5l12.62-12.62a10.81,10.81,0,0,0,0-14.77L80,107.58V10a10,10,0,0,0-20,0V69a10,10,0,0,0-20,0v7a10,10,0,0,0-20,0V83.7a10,10,0,0,0-20,0v63.8Z"/><line class="cls-2" x1="81" y1="73.5" x2="81" y2="127.5"/><path class="cls-3" d="M72,7.5h0A6.5,6.5,0,0,1,78.5,14v5.29a1.21,1.21,0,0,1-1.21,1.21H66.71a1.21,1.21,0,0,1-1.21-1.21V14A6.5,6.5,0,0,1,72,7.5Z"/><line class="cls-2" x1="66.5" y1="46.5" x2="77.5" y2="46.5"/><line class="cls-2" x1="66.5" y1="49.5" x2="77.5" y2="49.5"/><path d="M72,5a8,8,0,0,1,8,8v97.58a2,2,0,0,0,.6,1.43l12.75,12.52a7.92,7.92,0,0,1,2.33,5.91s0,.08,0,.12a7.92,7.92,0,0,1-2.33,5.91l-12,12H4V86.7a8,8,0,0,1,16,0,2,2,0,0,0,4,0V79a8,8,0,0,1,16,0,2,2,0,0,0,4,0V72a8,8,0,0,1,16,0,2,2,0,0,0,4,0V13a8,8,0,0,1,8-8m0-2A10,10,0,0,0,62,13V72a10,10,0,0,0-20,0v7a10,10,0,0,0-20,0V86.7a10,10,0,0,0-20,0v63.8H82.14l12.62-12.62a10.81,10.81,0,0,0,0-14.77L82,110.58V13A10,10,0,0,0,72,3Z"/></svg>