<svg id="Layer_1" data-name="Layer 1" xmlns="http://www.w3.org/2000/svg" width="204.0026" height="86.425" viewBox="0 0 204.0026 86.425">
  <defs>
    <style>
      .cls-1 {
        fill: #9e9e9e;
      }

      .cls-2 {
        fill: #d1d1d1;
      }

      .cls-3, .cls-8 {
        opacity: 0.1;
      }

      .cls-4 {
        fill: #a516a5;
      }

      .cls-5, .cls-8 {
        fill: #fff;
      }

      .cls-5 {
        opacity: 0.2;
      }

      .cls-6 {
        fill: #444;
      }

      .cls-7 {
        fill: #232323;
      }
    </style>
  </defs>
  <title>gamepad</title>
  <g>
    <rect class="cls-1" width="204.0026" height="86.425" rx="43.2124" ry="43.2124"/>
    <rect class="cls-2" x="5.3144" y="4.938" width="193.3739" height="76.549" rx="38.2745" ry="38.2745"/>
    <g class="cls-3">
      <rect x="78.1829" width="47.6367" height="86.425"/>
    </g>
    <g class="cls-3">
      <rect x="132.9506" y="30.9278" width="56.4476" height="26.0327" rx="13.0163" ry="13.0163"/>
    </g>
    <g>
      <g>
        <circle class="cls-4" cx="147.4456" cy="43.9441" r="10.787"/>
        <path class="cls-5" d="M147.4456,51.0465a12.4016,12.4016,0,0,0,10.7418-6.2079c.0243-.2957.0451-.5925.0451-.8945a10.787,10.787,0,0,0-21.5739,0c0,.302.0208.5987.0451.8944A12.4015,12.4015,0,0,0,147.4456,51.0465Z"/>
      </g>
      <g>
        <circle class="cls-4" cx="174.9032" cy="43.9441" r="10.787"/>
        <path class="cls-5" d="M174.9032,51.0465a12.4016,12.4016,0,0,0,10.7418-6.2079c.0243-.2957.0451-.5925.0451-.8945a10.787,10.787,0,0,0-21.5739,0c0,.302.0208.5987.0451.8944A12.4015,12.4015,0,0,0,174.9032,51.0465Z"/>
      </g>
    </g>
    <g>
      <rect class="cls-6" x="104.5109" y="50.2918" width="12.6954" height="5.0191" rx="2.5096" ry="2.5096"/>
      <rect class="cls-6" x="86.7963" y="50.2918" width="12.6954" height="5.0191" rx="2.5096" ry="2.5096"/>
    </g>
    <g>
      <g class="cls-3">
        <circle cx="42.2285" cy="43.9441" r="26.1322"/>
      </g>
      <g>
        <path class="cls-6" d="M37.6475,63.5773a1.8625,1.8625,0,0,1-1.8608-1.86V50.3859H24.4556a1.8625,1.8625,0,0,1-1.8608-1.86V39.363a1.8632,1.8632,0,0,1,1.8608-1.8608H35.7866V26.1711A1.8632,1.8632,0,0,1,37.6475,24.31H46.81A1.8632,1.8632,0,0,1,48.67,26.1711V37.5022H60.0015a1.8632,1.8632,0,0,1,1.8608,1.8608v9.1626a1.8625,1.8625,0,0,1-1.8608,1.86H48.67V61.717a1.8625,1.8625,0,0,1-1.8608,1.86Z"/>
        <path class="cls-7" d="M46.81,24.7534a1.4179,1.4179,0,0,1,1.4178,1.4178V37.9451H60.0014a1.4179,1.4179,0,0,1,1.4178,1.4178v9.1623a1.4178,1.4178,0,0,1-1.4178,1.4178H48.2275v11.774A1.4179,1.4179,0,0,1,46.81,63.1349H37.6474A1.4179,1.4179,0,0,1,36.23,61.7171V49.9431H24.4556a1.4179,1.4179,0,0,1-1.4178-1.4178V39.3629a1.4179,1.4179,0,0,1,1.4178-1.4178H36.23V26.1712a1.4178,1.4178,0,0,1,1.4178-1.4178H46.81m0-.8857H37.6474a2.3062,2.3062,0,0,0-2.3036,2.3036V37.0593H24.4556a2.3062,2.3062,0,0,0-2.3036,2.3036v9.1623a2.3062,2.3062,0,0,0,2.3036,2.3036H35.3438V61.7171a2.3062,2.3062,0,0,0,2.3036,2.3036H46.81a2.3062,2.3062,0,0,0,2.3036-2.3036V50.8288H60.0014a2.3062,2.3062,0,0,0,2.3036-2.3036V39.3629a2.3062,2.3062,0,0,0-2.3036-2.3036H49.1132V26.1712A2.3062,2.3062,0,0,0,46.81,23.8676Z"/>
      </g>
      <path class="cls-8" d="M42.2285,47.04a4.3417,4.3417,0,0,1-3.7606-2.1734,3.7734,3.7734,0,0,0,7.5212,0A4.3417,4.3417,0,0,1,42.2285,47.04Z"/>
    </g>
  </g>
</svg>
