<svg id="Layer_1" data-name="Layer 1" xmlns="http://www.w3.org/2000/svg" width="1215.3333" height="621.9688" viewBox="0 0 1215.3333 621.9688">
  <defs>
    <style>
      .cls-1 {
        fill: #008cff;
      }

      .cls-2 {
        opacity: 0;
      }

      .cls-3 {
        fill: #141414;
      }

      .cls-4 {
        fill: #9e9e9e;
      }

      .cls-18, .cls-20, .cls-25, .cls-41, .cls-42, .cls-44, .cls-5, .cls-53, .cls-54, .cls-6, .cls-7, .cls-8 {
        fill: none;
      }

      .cls-5 {
        stroke: #008cff;
      }

      .cls-18, .cls-20, .cls-29, .cls-41, .cls-42, .cls-44, .cls-5, .cls-54, .cls-6, .cls-7, .cls-8 {
        stroke-linecap: round;
      }

      .cls-5, .cls-6, .cls-7, .cls-8 {
        stroke-linejoin: round;
        stroke-width: 11px;
      }

      .cls-6 {
        stroke: #f4d451;
      }

      .cls-7 {
        stroke: #950099;
      }

      .cls-8 {
        stroke: #9e9e9e;
      }

      .cls-9 {
        fill: #f4d451;
      }

      .cls-10 {
        fill: #950099;
      }

      .cls-11 {
        fill: #c62418;
      }

      .cls-12 {
        fill: #3d3d3d;
      }

      .cls-13 {
        fill: #666;
      }

      .cls-14 {
        fill: #383838;
      }

      .cls-15 {
        fill: #6d6d6d;
      }

      .cls-16 {
        fill: #686868;
      }

      .cls-17, .cls-50 {
        opacity: 0.1;
      }

      .cls-18, .cls-25, .cls-29, .cls-41, .cls-44, .cls-53, .cls-54 {
        stroke: #000;
      }

      .cls-18, .cls-20, .cls-24, .cls-25, .cls-29, .cls-41, .cls-42, .cls-44, .cls-53, .cls-54 {
        stroke-miterlimit: 10;
      }

      .cls-18 {
        stroke-width: 0.4688px;
      }

      .cls-19, .cls-21 {
        fill: #c1c1c1;
      }

      .cls-20 {
        stroke: #c1c1c1;
        stroke-width: 0.4758px;
      }

      .cls-21 {
        fill-rule: evenodd;
      }

      .cls-22, .cls-36, .cls-41, .cls-54 {
        opacity: 0.2;
      }

      .cls-23, .cls-28, .cls-29, .cls-36, .cls-50 {
        fill: #fff;
      }

      .cls-24 {
        fill: #484b60;
        stroke: #484b60;
        stroke-width: 0.3689px;
      }

      .cls-25 {
        stroke-width: 0.3926px;
      }

      .cls-25, .cls-29, .cls-32 {
        opacity: 0.3;
      }

      .cls-26 {
        opacity: 0.4;
      }

      .cls-27 {
        fill: #3a3a3a;
      }

      .cls-28 {
        opacity: 0.05;
      }

      .cls-29 {
        stroke-width: 0.7377px;
      }

      .cls-30 {
        fill: #aaa;
      }

      .cls-31 {
        fill: #d6d6d6;
      }

      .cls-33 {
        fill: #303030;
      }

      .cls-34 {
        fill: #727272;
      }

      .cls-35 {
        fill: #518945;
      }

      .cls-37 {
        fill: #0d2f98;
      }

      .cls-38 {
        opacity: 0.5;
      }

      .cls-39 {
        fill: #d1d1d1;
      }

      .cls-40 {
        fill: #333;
      }

      .cls-41, .cls-42, .cls-44 {
        stroke-width: 2.0127px;
      }

      .cls-42 {
        stroke: #ff9700;
      }

      .cls-43 {
        fill: #cae2e5;
      }

      .cls-44 {
        opacity: 0.24;
      }

      .cls-45 {
        opacity: 0.43;
      }

      .cls-46 {
        fill: #707e7f;
      }

      .cls-47 {
        fill: #a516a5;
      }

      .cls-48 {
        fill: #444;
      }

      .cls-49 {
        fill: #232323;
      }

      .cls-51 {
        fill: #204db2;
      }

      .cls-52 {
        fill: #3663e0;
      }

      .cls-53 {
        stroke-width: 2.0367px;
      }

      .cls-54 {
        stroke-width: 2px;
      }
    </style>
  </defs>
  <title>vid-kid-modular-output</title>
  <g>
    <path class="cls-1" d="M178.2052,373.467a10.7778,10.7778,0,0,1-2.7052-.3555v66.5469l15.2225-6.7216v-59.47Zm9.5173,57.5151L178.5,435.0543V376.467h9.2225Z"/>
    <path class="cls-1" d="M310.6591,467.4313c-2.2567-8.46-11.4795-16.4532-24.5963-21.5814a49.9474,49.9474,0,0,0-50.4736-84.8593V243.5848a3,3,0,0,0-3-3H205.5425a6.091,6.091,0,0,0-9.6581,0H167.41a3,3,0,0,0-3,3v93.504a22.07,22.07,0,0,0-8.1624-1.5546H.3333v3H156.2479A19.1425,19.1425,0,0,1,167.41,342.12V243.5848h30.3016a3.0831,3.0831,0,0,1,6.0032,0h28.8742V362.6721a10.7812,10.7812,0,0,1-.5089,3.2745,46.9447,46.9447,0,0,1,47.5853,80.8572c15.2714,4.6643,25.9048,13.1405,28.1,21.4208a4.0689,4.0689,0,0,1-3.772,5.181,3.6588,3.6588,0,0,1-.64-.0566,281.6864,281.6864,0,0,0-98.0724,0,3.6566,3.6566,0,0,1-.6394.0565,4.07,4.07,0,0,1-3.7721-5.181c1.1827-4.4609,4.8226-8.9774,10.3074-12.9271H175.5v14.1763a19.2521,19.2521,0,0,1-19.2521,19.2521H.3333v3H156.2479A22.2773,22.2773,0,0,0,178.5,469.4738V458.2975h24.7545a22.4356,22.4356,0,0,0-5.2789,9.1393,7.0352,7.0352,0,0,0,1.1812,6.18,6.94,6.94,0,0,0,5.4858,2.7885,6.6756,6.6756,0,0,0,1.1631-.1026,278.681,278.681,0,0,1,97.0262,0,6.6735,6.6735,0,0,0,1.162.1024,6.9408,6.9408,0,0,0,5.4866-2.789A7.0341,7.0341,0,0,0,310.6591,467.4313Z"/>
    <path class="cls-1" d="M210.7043,432.9369l6.2315,2.7515a46.8659,46.8659,0,0,1-6.2315-11.0223Z"/>
    <path class="cls-1" d="M210.7043,373.467V389.93a46.9973,46.9973,0,0,1,11.084-16.4627Zm3,3H215.03q-.6829.8676-1.3254,1.7632Z"/>
  </g>
  <g class="cls-2">
    <rect class="cls-3" x="0.345" y="0.3458" width="994.459" height="621.2769"/>
    <path d="M994.459.6911V621.2776H.6911V.6911H994.459M995.15,0H0V621.9688H995.15V0Z"/>
  </g>
  <rect class="cls-4" x="161.3333" y="94.105" width="212.7139" height="94.9996" rx="47.4998" ry="47.4998"/>
  <polyline class="cls-5" points="259.833 409.105 720.086 409.105 720.086 323.105 1208.833 323.105"/>
  <polyline class="cls-6" points="470.333 275.605 744.833 275.605 744.833 296.605 1207.333 296.605"/>
  <polyline class="cls-7" points="571.833 515.105 744.833 515.105 744.833 349.105 1209.833 349.105"/>
  <polyline class="cls-8" points="340.833 142.105 767.333 142.105 767.333 272.105 1209.833 272.105"/>
  <path class="cls-9" d="M512.4148,224.3282c-1.2412-11.3195-8.4527-16.1486-16.1236-18.5386a90.8065,90.8065,0,0,0-52.8806,0c-7.6708,2.39-14.8823,7.2191-16.1236,18.5386-3.834,34.9641-3.3685,69.5536,0,104.5606,1.2412,12.9,8.4525,16.1488,16.1236,18.5386a90.8065,90.8065,0,0,0,52.8806,0c7.6711-2.39,14.8823-5.639,16.1236-18.5386C515.7833,293.8818,516.2488,259.2923,512.4148,224.3282Z"/>
  <rect class="cls-10" x="377.8199" y="425.1754" width="257.0992" height="181.7792" rx="20.2773" ry="20.2773"/>
  <g>
    <circle class="cls-11" cx="200.7134" cy="243.7735" r="3.0924"/>
    <rect class="cls-12" x="154.089" y="448.5877" width="93.2487" height="6.1849"/>
    <polygon class="cls-13" points="247.338 448.588 154.089 448.588 190.722 432.412 210.704 432.412 247.338 448.588"/>
    <rect class="cls-14" x="190.7225" y="372.942" width="19.9819" height="59.4699"/>
    <path class="cls-15" d="M232.5893,243.06H167.41V362.1471a10.7949,10.7949,0,0,0,10.7949,10.7949h43.5891a10.7949,10.7949,0,0,0,10.7949-10.7949Z"/>
    <rect class="cls-16" x="167.4103" y="243.0598" width="65.179" height="79.4517"/>
    <g class="cls-17">
      <line class="cls-18" x1="168.3618" y1="321.3222" x2="232.1135" y2="321.3222"/>
      <line class="cls-18" x1="168.3618" y1="316.5646" x2="232.1135" y2="316.5646"/>
      <line class="cls-18" x1="168.3618" y1="311.807" x2="232.1135" y2="311.807"/>
      <line class="cls-18" x1="168.3618" y1="307.0494" x2="232.1135" y2="307.0494"/>
      <line class="cls-18" x1="168.3618" y1="302.2918" x2="232.1135" y2="302.2918"/>
      <line class="cls-18" x1="168.3618" y1="297.5342" x2="232.1135" y2="297.5342"/>
      <line class="cls-18" x1="168.3618" y1="292.7766" x2="232.1135" y2="292.7766"/>
      <line class="cls-18" x1="168.3618" y1="288.019" x2="232.1135" y2="288.019"/>
      <line class="cls-18" x1="168.3618" y1="283.2615" x2="232.1135" y2="283.2615"/>
      <line class="cls-18" x1="168.3618" y1="278.5039" x2="232.1135" y2="278.5039"/>
      <line class="cls-18" x1="168.3618" y1="273.7463" x2="232.1135" y2="273.7463"/>
      <line class="cls-18" x1="168.3618" y1="268.9887" x2="232.1135" y2="268.9887"/>
      <line class="cls-18" x1="168.3618" y1="264.2311" x2="232.1135" y2="264.2311"/>
      <line class="cls-18" x1="168.3618" y1="259.4735" x2="232.1135" y2="259.4735"/>
      <line class="cls-18" x1="168.3618" y1="254.7159" x2="232.1135" y2="254.7159"/>
      <line class="cls-18" x1="168.3618" y1="249.9583" x2="232.1135" y2="249.9583"/>
      <line class="cls-18" x1="172.5195" y1="244.2492" x2="172.5195" y2="321.3222"/>
      <line class="cls-18" x1="177.1392" y1="244.2492" x2="177.1392" y2="321.3222"/>
      <line class="cls-18" x1="181.7589" y1="244.2492" x2="181.7589" y2="321.3222"/>
      <line class="cls-18" x1="186.3786" y1="244.2492" x2="186.3786" y2="321.3222"/>
      <line class="cls-18" x1="190.9983" y1="244.2492" x2="190.9983" y2="321.3222"/>
      <line class="cls-18" x1="195.618" y1="244.2492" x2="195.618" y2="321.3222"/>
      <line class="cls-18" x1="200.2377" y1="244.2492" x2="200.2377" y2="321.3222"/>
      <line class="cls-18" x1="204.8573" y1="244.2492" x2="204.8573" y2="321.3222"/>
      <line class="cls-18" x1="209.939" y1="244.2492" x2="209.939" y2="321.3222"/>
      <line class="cls-18" x1="214.5587" y1="244.2492" x2="214.5587" y2="321.3222"/>
      <line class="cls-18" x1="219.1784" y1="244.2492" x2="219.1784" y2="321.3222"/>
      <line class="cls-18" x1="223.7981" y1="244.2492" x2="223.7981" y2="321.3222"/>
      <line class="cls-18" x1="228.4177" y1="244.2492" x2="228.4177" y2="321.3222"/>
    </g>
    <circle class="cls-12" cx="199.9998" cy="352.2465" r="9.2773" transform="translate(-190.4973 244.5918) rotate(-45)"/>
    <rect class="cls-19" x="167.4103" y="319.657" width="65.179" height="12.3697"/>
    <g>
      <line class="cls-20" x1="206.3916" y1="345.8547" x2="199.9998" y2="352.2465"/>
      <line x1="206.3916" y1="345.8547" x2="199.9998" y2="352.2465"/>
    </g>
    <polygon class="cls-21" points="167.172 242.822 167.172 246.628 167.409 246.628 167.409 319.657 170.728 319.657 170.728 246.628 229.271 246.628 229.271 319.895 232.589 319.895 232.589 246.628 232.589 243.298 232.589 242.822 167.172 242.822"/>
    <g class="cls-22">
      <polygon class="cls-23" points="247.338 448.588 220.695 448.588 205.471 432.412 210.704 432.412 247.338 448.588"/>
    </g>
    <g class="cls-22">
      <rect class="cls-23" x="220.6953" y="448.5877" width="26.6425" height="6.1849"/>
    </g>
    <g class="cls-22">
      <rect class="cls-23" x="205.471" y="372.942" width="5.2333" height="59.4699"/>
    </g>
  </g>
  <g>
    <path class="cls-24" d="M507.4642,227.7925c-1.0969-10.5694-7.47-15.0785-14.2483-17.31a76.1359,76.1359,0,0,0-46.73,0c-6.7787,2.2316-13.1514,6.7407-14.2483,17.31-3.3881,32.6472-2.9767,64.9446,0,97.6319,1.0969,12.0448,7.4694,15.0787,14.2483,17.31a76.1359,76.1359,0,0,0,46.73,0c6.7788-2.2314,13.1514-5.2653,14.2483-17.31C510.441,292.7372,510.8523,260.44,507.4642,227.7925Z"/>
    <path class="cls-25" d="M469.8509,261.1167h39.8027"/>
    <path class="cls-25" d="M469.8509,206.8086v54.3081H430.0483"/>
    <rect class="cls-26" x="463.9493" y="217.0387" width="11.6189" height="30.2609" rx="5.8094" ry="5.8094"/>
    <g>
      <rect class="cls-27" x="464.687" y="217.7764" width="10.1435" height="28.7855" rx="5.0717" ry="5.0717"/>
      <path class="cls-28" d="M469.7587,217.7764c-.0311,0-.0612.0041-.0922.0047v28.7762c.031.0006.0611.0047.0922.0047A5.0717,5.0717,0,0,0,474.83,241.49v-18.642A5.0717,5.0717,0,0,0,469.7587,217.7764Z"/>
      <g class="cls-26">
        <line class="cls-29" x1="467.3612" y1="224.0469" x2="472.1562" y2="224.0469"/>
        <line class="cls-29" x1="467.3612" y1="227.7355" x2="472.1562" y2="227.7355"/>
        <line class="cls-29" x1="467.3612" y1="231.424" x2="472.1562" y2="231.424"/>
        <line class="cls-29" x1="467.3612" y1="235.1125" x2="472.1562" y2="235.1125"/>
        <line class="cls-29" x1="467.3612" y1="238.801" x2="472.1562" y2="238.801"/>
        <line class="cls-29" x1="467.3612" y1="242.4896" x2="472.1562" y2="242.4896"/>
        <line class="cls-29" x1="467.3612" y1="222.2027" x2="472.1562" y2="222.2027"/>
        <line class="cls-29" x1="467.3612" y1="225.8912" x2="472.1562" y2="225.8912"/>
        <line class="cls-29" x1="467.3612" y1="229.5797" x2="472.1562" y2="229.5797"/>
        <line class="cls-29" x1="467.3612" y1="233.2683" x2="472.1562" y2="233.2683"/>
        <line class="cls-29" x1="467.3612" y1="236.9568" x2="472.1562" y2="236.9568"/>
        <line class="cls-29" x1="467.3612" y1="240.6453" x2="472.1562" y2="240.6453"/>
      </g>
    </g>
    <g class="cls-17">
      <path d="M469.8509,329.3545c-14.0529,0-37.8074-3.873-39.5461-32.823q.6,14.4146,1.9328,28.893c1.0969,12.0448,7.4694,15.0787,14.2483,17.31a76.1359,76.1359,0,0,0,46.73,0c6.7788-2.2314,13.1514-5.2653,14.2483-17.31q1.3194-14.4881,1.9328-28.893C507.6584,325.4815,483.9038,329.3545,469.8509,329.3545Z"/>
    </g>
  </g>
  <g>
    <path class="cls-30" d="M303.3543,472.8241a4.0349,4.0349,0,0,0,4.4115-5.1245c-3.2714-12.3384-25.2613-25.1257-53.4477-25.06-28.1861-.0654-50.1768,12.7221-53.4478,25.06a4.0352,4.0352,0,0,0,4.4115,5.1245A281.6847,281.6847,0,0,1,303.3543,472.8241Z"/>
    <g class="cls-22">
      <path d="M221.9493,448.8122a62.9059,62.9059,0,0,0,64.738,0,87.9536,87.9536,0,0,0-64.738,0Z"/>
    </g>
    <circle class="cls-31" cx="254.3182" cy="406.773" r="46.9461"/>
    <g class="cls-32">
      <path class="cls-23" d="M254.5719,416.1622a53.49,53.49,0,0,0,44.4656-23.7074,46.9606,46.9606,0,0,0-89.271-.5164A53.4938,53.4938,0,0,0,254.5719,416.1622Z"/>
    </g>
    <circle class="cls-33" cx="254.3182" cy="406.773" r="24.3612"/>
    <circle class="cls-34" cx="254.3182" cy="406.773" r="20.0472"/>
    <circle class="cls-35" cx="254.3182" cy="373.2763" r="3.2989"/>
    <circle class="cls-33" cx="254.3182" cy="406.773" r="15.987"/>
    <circle class="cls-31" cx="254.3182" cy="406.773" r="9.643"/>
    <path class="cls-31" d="M200.9348,470.1105a3.9538,3.9538,0,0,0,4.3471,2.7136,281.6847,281.6847,0,0,1,98.0724,0,3.954,3.954,0,0,0,4.3474-2.7135A299.8272,299.8272,0,0,0,200.9348,470.1105Z"/>
    <path class="cls-36" d="M234.2709,406.773a20.0472,20.0472,0,0,1,39.3813-5.2991l4.1469-1.1881a24.3611,24.3611,0,1,0-46.8359,13.418l4.1469-1.1881A20.0393,20.0393,0,0,1,234.2709,406.773Z"/>
    <path class="cls-36" d="M244.6752,406.773a9.6375,9.6375,0,0,1,18.9648-2.4307l6.1093-1.75a15.9879,15.9879,0,1,0-30.7361,8.8056l6.0992-1.7473A9.6378,9.6378,0,0,1,244.6752,406.773Z"/>
    <g class="cls-22">
      <path d="M254.3182,449.1513a70.6573,70.6573,0,0,1-30.8723-7.0129,46.9408,46.9408,0,0,0,61.7446,0A70.6573,70.6573,0,0,1,254.3182,449.1513Z"/>
    </g>
    <circle class="cls-37" cx="254.3182" cy="406.773" r="8.6279"/>
    <ellipse class="cls-38" cx="254.3182" cy="406.773" rx="7.1054" ry="6.8516"/>
    <g class="cls-22">
      <circle class="cls-23" cx="254.3182" cy="372.7688" r="2.2839"/>
    </g>
  </g>
  <g>
    <rect class="cls-39" x="382.588" y="430.5249" width="247.563" height="171.0801" rx="16.4707" ry="16.4707"/>
    <g>
      <rect class="cls-1" x="467.1217" y="564.37" width="21.1334" height="21.1334" rx="4.1826" ry="4.1826"/>
      <rect class="cls-1" x="490.2678" y="564.37" width="21.1334" height="21.1334" rx="4.1826" ry="4.1826"/>
      <rect class="cls-1" x="513.414" y="564.37" width="21.1334" height="21.1334" rx="4.1826" ry="4.1826"/>
      <rect class="cls-1" x="536.5601" y="564.37" width="21.1334" height="21.1334" rx="4.1826" ry="4.1826"/>
      <rect class="cls-1" x="559.7062" y="564.37" width="21.1334" height="21.1334" rx="4.1826" ry="4.1826"/>
      <rect class="cls-1" x="582.8524" y="564.37" width="21.1334" height="21.1334" rx="4.1826" ry="4.1826"/>
    </g>
    <circle class="cls-40" cx="427.3707" cy="560.8477" r="24.6557"/>
    <line class="cls-41" x1="593.4191" y1="445.117" x2="593.4191" y2="477.3204"/>
    <rect class="cls-40" x="585.3683" y="454.1742" width="16.1017" height="9.0572" rx="3.5085" ry="3.5085"/>
    <line class="cls-42" x1="434.9184" y1="553.3001" x2="443.4576" y2="544.7609"/>
    <g>
      <circle class="cls-40" cx="533.0379" cy="510.0268" r="10.5667" transform="translate(-204.5203 526.2981) rotate(-45)"/>
      <line class="cls-42" x1="533.0379" y1="505.4523" x2="533.0379" y2="500.2767"/>
    </g>
    <path class="cls-40" d="M402.2119,430.5249v76.2038A12.8963,12.8963,0,0,0,415.07,519.5872h79.95a12.8963,12.8963,0,0,0,12.8585-12.8585V430.5249Z"/>
    <rect class="cls-43" x="412.7786" y="446.6266" width="85.5401" height="63.4003" rx="3.9535" ry="3.9535"/>
    <line class="cls-44" x1="467.1217" y1="544.2429" x2="603.9858" y2="544.2429"/>
    <line class="cls-44" x1="467.1217" y1="537.1984" x2="603.9858" y2="537.1984"/>
    <line class="cls-41" x1="563.2285" y1="445.117" x2="563.2285" y2="477.3204"/>
    <rect class="cls-40" x="555.1777" y="464.2378" width="16.1017" height="9.0572" rx="3.5085" ry="3.5085"/>
    <line class="cls-41" x1="533.0379" y1="445.117" x2="533.0379" y2="477.3204"/>
    <rect class="cls-40" x="524.987" y="444.1107" width="16.1017" height="9.0572" rx="3.5085" ry="3.5085"/>
    <g>
      <circle class="cls-40" cx="563.2285" cy="510.0268" r="10.5667"/>
      <line class="cls-42" x1="559.9938" y1="513.2616" x2="556.3341" y2="516.9212"/>
    </g>
    <g>
      <circle class="cls-40" cx="593.4191" cy="510.0268" r="10.5667" transform="translate(-186.835 568.9941) rotate(-45)"/>
      <line class="cls-42" x1="597.9937" y1="510.0268" x2="603.1692" y2="510.0268"/>
    </g>
    <g class="cls-45">
      <path class="cls-46" d="M488.2551,458.7028h0v-1.0065H421.8358v42.2669h66.4193V498.957h0Zm-32.2033,17.1078H462.09v6.0381h-6.0381Zm-2.0127,6.0381H448.001v-6.0381h6.0381Zm10.0635-6.0381h6.0381v6.0381h-6.0381Zm0-2.0127V467.76h6.0381v6.0381Zm-2.0127,0h-6.0381V467.76H462.09Zm-8.0508,0H448.001V467.76h6.0381Zm-8.0508,0H439.95V467.76h6.0381Zm0,2.0127v6.0381H439.95v-6.0381Zm0,8.0508V489.9H439.95v-6.0381Zm2.0127,0h6.0381V489.9H448.001Zm8.0508,0H462.09V489.9h-6.0381Zm8.0508,0h6.0381V489.9h-6.0381Zm8.0508,0h6.0381V489.9h-6.0381Zm0-2.0127v-6.0381h6.0381v6.0381Zm0-8.0508V467.76h6.0381v6.0381Zm0-8.0508V459.709h6.0381v6.0381Zm-2.0127,0h-6.0381V459.709h6.0381Zm-8.0508,0h-6.0381V459.709H462.09Zm-8.0508,0H448.001V459.709h6.0381Zm-8.0508,0H439.95V459.709h6.0381Zm-8.0508,0h-6.0381V459.709h6.0381Zm0,2.0127v6.0381h-6.0381V467.76Zm0,8.0508v6.0381h-6.0381v-6.0381Zm0,8.0508V489.9h-6.0381v-6.0381Zm0,8.0508V497.95h-6.0381v-6.0381Zm2.0127,0h6.0381V497.95H439.95Zm8.0508,0h6.0381V497.95H448.001Zm8.0508,0H462.09V497.95h-6.0381Zm8.0508,0h6.0381V497.95h-6.0381Zm8.0508,0h6.0381V497.95h-6.0381Zm8.0508,0h6.0381V497.95h-6.0381Zm0-2.0127v-6.0381h6.0381V489.9Zm0-8.0508v-6.0381h6.0381v6.0381Zm0-8.0508V467.76h6.0381v6.0381Zm0-8.0508V459.709h6.0381v6.0381Zm-56.3558-6.0381h6.0381v6.0381h-6.0381Zm0,8.0508h6.0381v6.0381h-6.0381Zm0,8.0508h6.0381v6.0381h-6.0381Zm0,8.0508h6.0381V489.9h-6.0381Zm0,8.0508h6.0381V497.95h-6.0381Z"/>
      <circle class="cls-46" cx="434.9184" cy="462.7282" r="1.5095"/>
      <circle class="cls-46" cx="426.8676" cy="462.7282" r="1.5095"/>
      <circle class="cls-46" cx="459.0709" cy="462.7282" r="1.5095"/>
      <circle class="cls-46" cx="459.0709" cy="470.7791" r="1.5095"/>
      <circle class="cls-46" cx="426.8676" cy="486.8807" r="1.5095"/>
      <circle class="cls-46" cx="442.9692" cy="486.8807" r="1.5095"/>
      <circle class="cls-46" cx="451.02" cy="486.8807" r="1.5095"/>
      <circle class="cls-46" cx="459.0709" cy="486.8807" r="1.5095"/>
      <circle class="cls-46" cx="475.1725" cy="486.8807" r="1.5095"/>
      <circle class="cls-46" cx="483.2234" cy="486.8807" r="1.5095"/>
    </g>
  </g>
  <path class="cls-5" d="M720.0859,430.605"/>
  <path class="cls-5" d="M720.0859,323.105"/>
  <g>
    <rect class="cls-4" x="165.6889" y="98.3924" width="204.0026" height="86.425" rx="43.2124" ry="43.2124"/>
    <rect class="cls-39" x="171.0033" y="103.3304" width="193.3739" height="76.549" rx="38.2745" ry="38.2745"/>
    <g class="cls-17">
      <rect x="243.8719" y="98.3924" width="47.6367" height="86.425"/>
    </g>
    <g class="cls-17">
      <rect x="298.6396" y="129.3202" width="56.4476" height="26.0327" rx="13.0163" ry="13.0163"/>
    </g>
    <g>
      <g>
        <circle class="cls-47" cx="313.1346" cy="142.3365" r="10.787"/>
        <path class="cls-36" d="M313.1346,149.4389a12.4016,12.4016,0,0,0,10.7418-6.2079c.0243-.2957.0451-.5925.0451-.8945a10.787,10.787,0,1,0-21.5739,0c0,.302.0208.5987.0451.8944A12.4015,12.4015,0,0,0,313.1346,149.4389Z"/>
      </g>
      <g>
        <circle class="cls-47" cx="340.5921" cy="142.3365" r="10.787"/>
        <path class="cls-36" d="M340.5921,149.4389a12.4016,12.4016,0,0,0,10.7418-6.2079c.0243-.2957.0451-.5925.0451-.8945a10.787,10.787,0,1,0-21.5739,0c0,.302.0208.5987.0451.8944A12.4015,12.4015,0,0,0,340.5921,149.4389Z"/>
      </g>
    </g>
    <g>
      <rect class="cls-48" x="270.1998" y="148.6842" width="12.6954" height="5.0191" rx="2.5096" ry="2.5096"/>
      <rect class="cls-48" x="252.4853" y="148.6842" width="12.6954" height="5.0191" rx="2.5096" ry="2.5096"/>
    </g>
    <g>
      <g class="cls-17">
        <circle cx="207.9175" cy="142.3365" r="26.1322"/>
      </g>
      <g>
        <path class="cls-48" d="M203.3362,161.97a1.8632,1.8632,0,0,1-1.8608-1.8608V148.7784H190.1443a1.8628,1.8628,0,0,1-1.86-1.8608v-9.1621a1.8628,1.8628,0,0,1,1.86-1.8608h11.3311V124.5635a1.8632,1.8632,0,0,1,1.8608-1.8608h9.1621a1.8632,1.8632,0,0,1,1.8608,1.8608v11.3311H225.69a1.8632,1.8632,0,0,1,1.8608,1.8608v9.1621a1.8632,1.8632,0,0,1-1.8608,1.8608H214.3592v11.3311a1.8632,1.8632,0,0,1-1.8608,1.8608Z"/>
        <path class="cls-49" d="M212.4986,123.1457a1.4179,1.4179,0,0,1,1.4178,1.4178v11.7739H225.69a1.4178,1.4178,0,0,1,1.4178,1.4178v9.1623a1.4178,1.4178,0,0,1-1.4178,1.4178H213.9164v11.774a1.4178,1.4178,0,0,1-1.4178,1.4178h-9.1622a1.4178,1.4178,0,0,1-1.4178-1.4178v-11.774h-11.774a1.4179,1.4179,0,0,1-1.4178-1.4178v-9.1623a1.4178,1.4178,0,0,1,1.4178-1.4178h11.774V124.5636a1.4178,1.4178,0,0,1,1.4178-1.4178h9.1622m0-.8857h-9.1622a2.3062,2.3062,0,0,0-2.3036,2.3036v10.8882H190.1445a2.3062,2.3062,0,0,0-2.3036,2.3036v9.1623a2.3062,2.3062,0,0,0,2.3036,2.3036h10.8882v10.8882a2.3062,2.3062,0,0,0,2.3036,2.3036h9.1622a2.3062,2.3062,0,0,0,2.3036-2.3036V149.2212H225.69a2.3062,2.3062,0,0,0,2.3036-2.3036v-9.1623a2.3062,2.3062,0,0,0-2.3036-2.3036H214.8022V124.5636a2.3062,2.3062,0,0,0-2.3036-2.3036Z"/>
      </g>
      <path class="cls-50" d="M207.9175,145.432a4.3417,4.3417,0,0,1-3.7606-2.1734,3.7734,3.7734,0,0,0,7.5212,0A4.3417,4.3417,0,0,1,207.9175,145.432Z"/>
    </g>
  </g>
  <path class="cls-51" d="M156.2479,338.0092H.3333V488.2009H156.2479A19.2521,19.2521,0,0,0,175.5,468.9489V357.2612A19.2521,19.2521,0,0,0,156.2479,338.0092Z"/>
  <path class="cls-51" d="M156.0293,340.605H.3333v145h155.696A16.4707,16.4707,0,0,0,172.5,469.1343V357.0757A16.4707,16.4707,0,0,0,156.0293,340.605Z"/>
  <path class="cls-52" d="M156.0293,340.605H.3333v107H172.5V357.0757A16.4707,16.4707,0,0,0,156.0293,340.605Z"/>
  <path class="cls-23" d="M137.0293,401.605H.3333v84H153.5V418.0757A16.4707,16.4707,0,0,0,137.0293,401.605Z"/>
  <g class="cls-22">
    <line class="cls-53" x1="11.9999" y1="401.6051" x2="11.9999" y2="485.605"/>
    <line class="cls-53" x1="31.9999" y1="401.6051" x2="31.9999" y2="485.605"/>
    <line class="cls-53" x1="51.9999" y1="401.6051" x2="51.9999" y2="485.605"/>
    <line class="cls-53" x1="71.9999" y1="401.6051" x2="71.9999" y2="485.605"/>
    <line class="cls-53" x1="91.9999" y1="401.6051" x2="91.9999" y2="485.605"/>
    <line class="cls-53" x1="111.9999" y1="401.6051" x2="111.9999" y2="485.605"/>
    <line class="cls-53" x1="131.9999" y1="401.6051" x2="131.9999" y2="485.605"/>
  </g>
  <path class="cls-40" d="M34.1569,446.605H29.8431A5.8431,5.8431,0,0,1,24,440.7619V401.605H40v39.1569A5.8431,5.8431,0,0,1,34.1569,446.605Z"/>
  <path class="cls-40" d="M54.1569,446.605H49.8431A5.8431,5.8431,0,0,1,44,440.7619V401.605H60v39.1569A5.8431,5.8431,0,0,1,54.1569,446.605Z"/>
  <path class="cls-40" d="M94.1569,446.605H89.8431A5.8431,5.8431,0,0,1,84,440.7619V401.605h16v39.1569A5.8431,5.8431,0,0,1,94.1569,446.605Z"/>
  <path class="cls-40" d="M114.1569,446.605h-4.3138A5.8431,5.8431,0,0,1,104,440.7619V401.605h16v39.1569A5.8431,5.8431,0,0,1,114.1569,446.605Z"/>
  <path class="cls-40" d="M134.1569,446.605h-4.3138A5.8431,5.8431,0,0,1,124,440.7619V401.605h16v39.1569A5.8431,5.8431,0,0,1,134.1569,446.605Z"/>
  <line class="cls-54" x1="132" y1="360.105" x2="132" y2="392.105"/>
  <rect class="cls-40" x="124" y="377.105" width="16" height="9" rx="3.5085" ry="3.5085"/>
  <line class="cls-54" x1="112" y1="360.105" x2="112" y2="392.105"/>
  <rect class="cls-40" x="104" y="372.105" width="16" height="9" rx="3.5085" ry="3.5085"/>
  <line class="cls-54" x1="92" y1="360.105" x2="92" y2="392.105"/>
  <rect class="cls-40" x="84" y="363.105" width="16" height="9" rx="3.5085" ry="3.5085"/>
  <line class="cls-54" x1="72" y1="360.105" x2="72" y2="392.105"/>
  <rect class="cls-40" x="64" y="380.105" width="16" height="9" rx="3.5085" ry="3.5085"/>
</svg>
