<svg xmlns="http://www.w3.org/2000/svg" width="1153.8867" height="621.9688" viewBox="0 0 1153.8867 621.9688">
  <defs>
    <style>
      .cls-1 {
        opacity: 0;
      }

      .cls-2 {
        fill: #141414;
      }

      .cls-3 {
        fill: #272727;
      }

      .cls-10, .cls-4, .cls-5, .cls-6, .cls-9 {
        fill: none;
        stroke-linecap: round;
        stroke-linejoin: round;
        stroke-width: 11px;
      }

      .cls-4 {
        stroke: #fff;
      }

      .cls-5 {
        stroke: #008cff;
      }

      .cls-6 {
        stroke: #f4d451;
      }

      .cls-7 {
        fill: #fff;
      }

      .cls-8 {
        fill: #ea4600;
      }

      .cls-9 {
        stroke: #ea4600;
      }

      .cls-10 {
        stroke: #950099;
      }

      .cls-11 {
        fill: #3094d8;
      }

      .cls-12 {
        fill: #ff2ece;
      }
    </style>
  </defs>
  <title>idea-graphic-2</title>
  <g id="Layer_3" data-name="Layer 3">
    <g class="cls-1">
      <rect class="cls-2" x="80.5117" y="0.3458" width="994.459" height="621.2769"/>
      <path d="M994.459.6911V621.2776H.6911V.6911H994.459M995.15,0H0V621.9688H995.15Z" transform="translate(80.1667)"/>
    </g>
  </g>
  <g id="Layer_2" data-name="Layer 2">
    <rect class="cls-3" x="48.1667" width="1105.72" height="621.9688"/>
    <polyline class="cls-4" points="678.051 399.816 799.859 399.816 799.859 178.816 920.167 178.816"/>
    <polyline class="cls-5" points="5.5 323.484 196.5 323.484 196.5 166.484 439.994 166.484"/>
    <polyline class="cls-6" points="5.5 296.982 532.467 296.982 532.467 399.814 678.051 399.814"/>
    <polyline class="cls-4" points="439.994 143.484 439.994 259.126 677.994 259.126 677.994 399.814"/>
    <g>
      <circle class="cls-7" cx="678.0507" cy="398.4889" r="79.5061"/>
      <g>
        <path class="cls-8" d="M564.09,398.0674l5.2808,2.1973v.9229l-6.2769-2.7754v-.7031l6.2769-2.7686v.915Z" transform="translate(80.1667)"/>
        <path class="cls-8" d="M578.9287,399.6348a4.7511,4.7511,0,0,1-.3589,1.3369,3.5671,3.5671,0,0,1-.7178,1.0762,3.1729,3.1729,0,0,1-1.0586.7148,3.52,3.52,0,0,1-1.373.2559,3.2435,3.2435,0,0,1-1.1533-.1943,3.0779,3.0779,0,0,1-.916-.53,3.5346,3.5346,0,0,1-.6919-.791,4.8543,4.8543,0,0,1-.4834-.9785,5.92,5.92,0,0,1-.2817-1.0869,7.5512,7.5512,0,0,1-.0991-1.1211v-1.5449a7.5512,7.5512,0,0,1,.0991-1.1211,5.9508,5.9508,0,0,1,.2817-1.0879,4.8718,4.8718,0,0,1,.4834-.9775,3.6213,3.6213,0,0,1,.6919-.7949,3.0668,3.0668,0,0,1,.916-.5342,3.2653,3.2653,0,0,1,1.1533-.1943,3.56,3.56,0,0,1,1.3877.2568,3.185,3.185,0,0,1,1.0586.7139,3.5189,3.5189,0,0,1,.7139,1.08,4.7267,4.7267,0,0,1,.3481,1.3555h-.8716a4.8008,4.8008,0,0,0-.2822-1.0332,2.8618,2.8618,0,0,0-.5161-.8457,2.3115,2.3115,0,0,0-.7764-.5713,2.5133,2.5133,0,0,0-1.062-.209,2.2876,2.2876,0,0,0-.9229.1758,2.3812,2.3812,0,0,0-.707.4688,2.7962,2.7962,0,0,0-.5161.6846,4.4,4.4,0,0,0-.3442.832,5.8748,5.8748,0,0,0-.1943.8965,6.6175,6.6175,0,0,0-.062.8906v1.56a6.6822,6.6822,0,0,0,.062.8936,5.8607,5.8607,0,0,0,.1943.9014,4.3648,4.3648,0,0,0,.3442.8311,2.8555,2.8555,0,0,0,.5161.6885,2.3552,2.3552,0,0,0,.707.4727,2.2876,2.2876,0,0,0,.9229.1758,2.6406,2.6406,0,0,0,1.0732-.2021,2.2185,2.2185,0,0,0,.7764-.56,2.8848,2.8848,0,0,0,.5127-.8428,4.5427,4.5427,0,0,0,.2744-1.04Z" transform="translate(80.1667)"/>
        <path class="cls-8" d="M586.5093,399.8984h-4.0576l-.9448,2.9736h-.8862l3.4717-10.6641h.791l3.4424,10.6641h-.8789Zm-3.8086-.7832h3.56l-1.7725-5.61Z" transform="translate(80.1667)"/>
        <path class="cls-8" d="M596.7046,402.8721h-.8716l-4.8926-9.001-.0073,9.001h-.8716V392.208h.8716l4.8926,8.9873.0073-8.9873h.8716Z" transform="translate(80.1667)"/>
        <path class="cls-8" d="M602.3442,401.5469l2.9077-9.3389h.93l-3.42,10.6641h-.813l-3.42-10.6641h.93Z" transform="translate(80.1667)"/>
        <path class="cls-8" d="M613.5137,399.8984h-4.0576l-.9448,2.9736h-.8862l3.4717-10.6641h.791l3.4424,10.6641h-.8789Zm-3.8086-.7832h3.56l-1.7725-5.61Z" transform="translate(80.1667)"/>
        <path class="cls-8" d="M623.1377,400.25a1.8712,1.8712,0,0,0-.1133-.67,1.785,1.785,0,0,0-.3154-.5312,2.3625,2.3625,0,0,0-.4648-.4141,3.9992,3.9992,0,0,0-.5635-.3184q-.3-.1392-.6152-.249t-.6084-.2051q-.3735-.1172-.7578-.26a6.7213,6.7213,0,0,1-.7471-.33,4.7518,4.7518,0,0,1-.6816-.4248,3.0013,3.0013,0,0,1-.5566-.5381,2.3344,2.3344,0,0,1-.5088-1.4941,2.3052,2.3052,0,0,1,.2969-1.1787,2.81,2.81,0,0,1,.7725-.8643,3.48,3.48,0,0,1,1.0732-.5312,4.1808,4.1808,0,0,1,1.2051-.18,3.7778,3.7778,0,0,1,1.2959.2236,3.4117,3.4117,0,0,1,1.08.626,3.0142,3.0142,0,0,1,.7441.9775,3.1261,3.1261,0,0,1,.3,1.2783h-.8857a3.0632,3.0632,0,0,0-.2568-.9482,2.3264,2.3264,0,0,0-.5273-.7363,2.3968,2.3968,0,0,0-.7725-.4795,2.69,2.69,0,0,0-.9775-.1719,3.306,3.306,0,0,0-.8828.12,2.537,2.537,0,0,0-.7842.3662,1.9524,1.9524,0,0,0-.5635.6152,1.687,1.687,0,0,0-.2158.8682,1.5863,1.5863,0,0,0,.252.9082,2.2925,2.2925,0,0,0,.6416.63,4.1472,4.1472,0,0,0,.8525.4287q.4658.1729.8828.2969.3882.1172.7842.2666a6.5959,6.5959,0,0,1,.7646.3486,5.159,5.159,0,0,1,.6924.4424,2.93,2.93,0,0,1,.5605.5605,2.5709,2.5709,0,0,1,.373.6992,2.5446,2.5446,0,0,1,.1357.8535,2.387,2.387,0,0,1-.3037,1.2236,2.7907,2.7907,0,0,1-.7871.8672,3.4373,3.4373,0,0,1-1.0986.5205,4.62,4.62,0,0,1-1.2451.1719,4.5593,4.5593,0,0,1-1.3623-.2051,3.7391,3.7391,0,0,1-1.1758-.6006,3.1177,3.1177,0,0,1-.8389-.9775,2.8789,2.8789,0,0,1-.3437-1.3291h.8857a2.8049,2.8049,0,0,0,.3037,1.0137,2.364,2.364,0,0,0,.6123.74,2.5941,2.5941,0,0,0,.8643.4463,3.5713,3.5713,0,0,0,1.0547.15,3.6368,3.6368,0,0,0,.9189-.1172,2.56,2.56,0,0,0,.81-.3623,1.8987,1.8987,0,0,0,.5781-.623A1.7649,1.7649,0,0,0,623.1377,400.25Z" transform="translate(80.1667)"/>
        <path class="cls-8" d="M631.6123,398.0381l-5.3838-2.2119v-.9l6.4014,2.7686v.7031l-6.4014,2.7754v-.9Z" transform="translate(80.1667)"/>
      </g>
    </g>
    <polyline class="cls-4" points="388.083 445.277 388.083 552.012 775.878 552.012 775.878 502.989 955.878 502.989"/>
    <polyline class="cls-9" points="5.5 272.484 165.558 272.484 165.558 67.484 920.171 67.484 920.171 178.816"/>
    <polyline class="cls-4" points="955.878 503.348 955.878 336.941 920.167 336.941 920.167 178.816"/>
    <g>
      <circle class="cls-7" cx="439.9939" cy="166.4844" r="79.5061"/>
      <g>
        <path class="cls-8" d="M330.5342,166.0635l5.2808,2.1973v.9229l-6.2769-2.7759v-.7031l6.2769-2.7686v.9155Z" transform="translate(80.1667)"/>
        <path class="cls-8" d="M341.7842,169.5425l2.9077-9.3384h.93l-3.42,10.6641h-.813l-3.42-10.6641h.93Z" transform="translate(80.1667)"/>
        <path class="cls-8" d="M347.7388,160.2041h6.1743v.791H351.24v9.0967h2.6733v.7764h-6.1743v-.7764h2.5928v-9.0967h-2.5928Z" transform="translate(80.1667)"/>
        <path class="cls-8" d="M356.623,170.8682V160.2041h2.5781a4.3118,4.3118,0,0,1,1.8311.4028,4.1167,4.1167,0,0,1,1.3623,1.04,4.5539,4.5539,0,0,1,.85,1.52,6.0251,6.0251,0,0,1,.3076,1.8491v1.0474a6.0332,6.0332,0,0,1-.3076,1.85,4.5611,4.5611,0,0,1-.85,1.52,4.0677,4.0677,0,0,1-1.3623,1.0361,4.34,4.34,0,0,1-1.8311.3994Zm.8789-9.917v9.1772h1.6992a3.3482,3.3482,0,0,0,1.5054-.3516,3.2293,3.2293,0,0,0,1.08-.897,4.0207,4.0207,0,0,0,.6553-1.2891,5.3525,5.3525,0,0,0,.231-1.5273v-1.0693a5.2883,5.2883,0,0,0-.231-1.5161,3.9779,3.9779,0,0,0-.6553-1.2817,3.243,3.243,0,0,0-1.08-.8936,3.3482,3.3482,0,0,0-1.5054-.3516Z" transform="translate(80.1667)"/>
        <path class="cls-8" d="M371.374,165.7559h-4.7021v4.3506h5.42v.7617H365.8V160.2041h6.2622v.769h-5.3906v4.021h4.7021Z" transform="translate(80.1667)"/>
        <path class="cls-8" d="M381.4082,166.2466a7.9541,7.9541,0,0,1-.0952,1.11,6.1722,6.1722,0,0,1-.2744,1.0986,5.2124,5.2124,0,0,1-.4727.9961,3.5825,3.5825,0,0,1-.6777.8125,2.9929,2.9929,0,0,1-.9043.55,3.3661,3.3661,0,0,1-2.2925,0,3.0847,3.0847,0,0,1-.9116-.55,3.5082,3.5082,0,0,1-.6885-.8164,5.1421,5.1421,0,0,1-.4766-1,6.4,6.4,0,0,1-.2783-1.0947,7.5316,7.5316,0,0,1-.0986-1.106V164.84a7.6192,7.6192,0,0,1,.0986-1.11,6.6,6.6,0,0,1,.2749-1.0986,5.0108,5.0108,0,0,1,.4722-1,3.6654,3.6654,0,0,1,.6851-.82,3.0291,3.0291,0,0,1,.9048-.5532,3.1,3.1,0,0,1,1.146-.2012,3.04,3.04,0,0,1,2.062.751,3.4794,3.4794,0,0,1,.6846.8164,5.3179,5.3179,0,0,1,.4727,1,6.1722,6.1722,0,0,1,.2744,1.0986,7.9871,7.9871,0,0,1,.0952,1.1167Zm-.8643-1.4209a8.1584,8.1584,0,0,0-.0659-.8862,5.5725,5.5725,0,0,0-.19-.9009,4.713,4.713,0,0,0-.3408-.8384,2.8342,2.8342,0,0,0-.5088-.7,2.2118,2.2118,0,0,0-1.6187-.6519,2.2,2.2,0,0,0-.9116.18,2.3255,2.3255,0,0,0-.7.4795,2.8675,2.8675,0,0,0-.5093.6992,4.8058,4.8058,0,0,0-.34.8389,5.5725,5.5725,0,0,0-.19.9009,8.1191,8.1191,0,0,0-.0659.8789v1.4209a7.5008,7.5008,0,0,0,.0693.8823,5.9747,5.9747,0,0,0,.1943.9014,4.6586,4.6586,0,0,0,.3408.8418,2.8251,2.8251,0,0,0,.5088.7,2.3185,2.3185,0,0,0,.7031.48,2.4383,2.4383,0,0,0,1.835,0,2.3369,2.3369,0,0,0,.6992-.48,2.8251,2.8251,0,0,0,.5088-.7,4.4756,4.4756,0,0,0,.3369-.8418,5.7173,5.7173,0,0,0,.1836-.9014,8.7923,8.7923,0,0,0,.062-.8823Z" transform="translate(80.1667)"/>
        <path class="cls-8" d="M389.0547,166.0342l-5.3833-2.2119v-.9009l6.4014,2.7686v.7031l-6.4014,2.7759v-.9009Z" transform="translate(80.1667)"/>
      </g>
    </g>
    <g>
      <circle class="cls-7" cx="920.1667" cy="178.9783" r="79.5061"/>
      <g>
        <path class="cls-8" d="M834.5469,180.124a4.7507,4.7507,0,0,1-.3584,1.3369,3.5671,3.5671,0,0,1-.7178,1.0762,3.1779,3.1779,0,0,1-1.0586.7148,3.5217,3.5217,0,0,1-1.373.2559,3.2435,3.2435,0,0,1-1.1533-.1943,3.0718,3.0718,0,0,1-.916-.53,3.5244,3.5244,0,0,1-.6924-.791,4.8542,4.8542,0,0,1-.4834-.9785,5.9193,5.9193,0,0,1-.2812-1.0869,7.5524,7.5524,0,0,1-.1-1.1211v-1.5449a7.5524,7.5524,0,0,1,.1-1.1211,5.95,5.95,0,0,1,.2813-1.0879,4.8718,4.8718,0,0,1,.4834-.9775,3.6105,3.6105,0,0,1,.6924-.7949,3.0608,3.0608,0,0,1,.916-.5342,3.2653,3.2653,0,0,1,1.1533-.1943,3.5618,3.5618,0,0,1,1.3877.2568,3.19,3.19,0,0,1,1.0586.7139,3.5278,3.5278,0,0,1,.7139,1.08,4.7423,4.7423,0,0,1,.3477,1.3555h-.8711a4.8291,4.8291,0,0,0-.2822-1.0332,2.8732,2.8732,0,0,0-.5166-.8457,2.3115,2.3115,0,0,0-.7764-.5713,2.511,2.511,0,0,0-1.0615-.209,2.2876,2.2876,0,0,0-.9229.1758,2.3749,2.3749,0,0,0-.707.4688,2.7857,2.7857,0,0,0-.5166.6846,4.3987,4.3987,0,0,0-.3437.832,5.8169,5.8169,0,0,0-.1943.8965,6.5407,6.5407,0,0,0-.0625.8906v1.56a6.6045,6.6045,0,0,0,.0625.8936,5.8037,5.8037,0,0,0,.1943.9014,4.3633,4.3633,0,0,0,.3438.8311,2.8446,2.8446,0,0,0,.5166.6885,2.3491,2.3491,0,0,0,.707.4727,2.2876,2.2876,0,0,0,.9229.1758,2.6406,2.6406,0,0,0,1.0732-.2021,2.2185,2.2185,0,0,0,.7764-.56,2.8848,2.8848,0,0,0,.5127-.8428,4.5427,4.5427,0,0,0,.2744-1.04Z" transform="translate(80.1667)"/>
        <path class="cls-8" d="M842.75,180.7393a1.8712,1.8712,0,0,0-.1133-.67,1.785,1.785,0,0,0-.3154-.5312,2.3625,2.3625,0,0,0-.4648-.4141,3.9992,3.9992,0,0,0-.5635-.3184q-.3-.1392-.6152-.249t-.6084-.2051q-.3735-.1172-.7578-.26a6.7213,6.7213,0,0,1-.7471-.33,4.7518,4.7518,0,0,1-.6816-.4248,3.0013,3.0013,0,0,1-.5566-.5381,2.3344,2.3344,0,0,1-.5088-1.4941,2.3052,2.3052,0,0,1,.2969-1.1787,2.81,2.81,0,0,1,.7725-.8643,3.48,3.48,0,0,1,1.0732-.5312,4.1808,4.1808,0,0,1,1.2051-.18,3.7778,3.7778,0,0,1,1.2959.2236,3.4117,3.4117,0,0,1,1.08.626,3.0142,3.0142,0,0,1,.7441.9775,3.1261,3.1261,0,0,1,.3,1.2783h-.8857a3.0632,3.0632,0,0,0-.2568-.9482,2.3264,2.3264,0,0,0-.5273-.7363,2.3968,2.3968,0,0,0-.7725-.4795,2.69,2.69,0,0,0-.9775-.1719,3.306,3.306,0,0,0-.8828.12,2.537,2.537,0,0,0-.7842.3662,1.9524,1.9524,0,0,0-.5635.6152,1.687,1.687,0,0,0-.2158.8682,1.5863,1.5863,0,0,0,.252.9082,2.2925,2.2925,0,0,0,.6416.63,4.1472,4.1472,0,0,0,.8525.4287q.4658.1729.8828.2969.3882.1172.7842.2666a6.5959,6.5959,0,0,1,.7646.3486,5.159,5.159,0,0,1,.6924.4424,2.93,2.93,0,0,1,.5605.5605,2.5709,2.5709,0,0,1,.373.6992,2.5446,2.5446,0,0,1,.1357.8535,2.387,2.387,0,0,1-.3037,1.2236,2.7907,2.7907,0,0,1-.7871.8672,3.4373,3.4373,0,0,1-1.0986.5205,4.62,4.62,0,0,1-1.2451.1719,4.5593,4.5593,0,0,1-1.3623-.2051,3.7391,3.7391,0,0,1-1.1758-.6006,3.1177,3.1177,0,0,1-.8389-.9775,2.8789,2.8789,0,0,1-.3437-1.3291h.8857a2.8049,2.8049,0,0,0,.3037,1.0137,2.364,2.364,0,0,0,.6123.74,2.5941,2.5941,0,0,0,.8643.4463,3.5713,3.5713,0,0,0,1.0547.15,3.6368,3.6368,0,0,0,.9189-.1172,2.56,2.56,0,0,0,.81-.3623,1.8987,1.8987,0,0,0,.5781-.623A1.7649,1.7649,0,0,0,842.75,180.7393Z" transform="translate(80.1667)"/>
        <path class="cls-8" d="M851.752,180.7393a1.8712,1.8712,0,0,0-.1133-.67,1.8058,1.8058,0,0,0-.3154-.5312,2.3906,2.3906,0,0,0-.4648-.4141,4.01,4.01,0,0,0-.5645-.3184q-.3-.1392-.6152-.249t-.6074-.2051q-.3735-.1172-.7578-.26a6.7213,6.7213,0,0,1-.7471-.33,4.7518,4.7518,0,0,1-.6816-.4248,2.9714,2.9714,0,0,1-.5566-.5381,2.3344,2.3344,0,0,1-.5088-1.4941,2.3052,2.3052,0,0,1,.2969-1.1787,2.81,2.81,0,0,1,.7725-.8643,3.48,3.48,0,0,1,1.0732-.5312,4.1742,4.1742,0,0,1,1.2041-.18,3.7833,3.7833,0,0,1,1.2969.2236,3.4225,3.4225,0,0,1,1.08.626,3.0251,3.0251,0,0,1,.7432.9775,3.1267,3.1267,0,0,1,.3008,1.2783H851.7a3.0626,3.0626,0,0,0-.2559-.9482,2.3264,2.3264,0,0,0-.5273-.7363,2.3968,2.3968,0,0,0-.7725-.4795,2.6954,2.6954,0,0,0-.9785-.1719,3.2989,3.2989,0,0,0-.8818.12,2.5265,2.5265,0,0,0-.7842.3662,1.941,1.941,0,0,0-.5635.6152,1.6874,1.6874,0,0,0-.2168.8682,1.5867,1.5867,0,0,0,.2529.9082,2.2888,2.2888,0,0,0,.6406.63,4.1307,4.1307,0,0,0,.8535.4287q.4644.1729.8828.2969.3882.1172.7832.2666a6.6857,6.6857,0,0,1,.7656.3486,5.2217,5.2217,0,0,1,.6924.4424,2.93,2.93,0,0,1,.5605.5605,2.5979,2.5979,0,0,1,.373.6992,2.5694,2.5694,0,0,1,.1357.8535,2.387,2.387,0,0,1-.3037,1.2236,2.7937,2.7937,0,0,1-.7881.8672,3.4373,3.4373,0,0,1-1.0986.5205,4.62,4.62,0,0,1-1.2451.1719,4.5593,4.5593,0,0,1-1.3623-.2051,3.734,3.734,0,0,1-1.1748-.6006,3.1177,3.1177,0,0,1-.8389-.9775,2.88,2.88,0,0,1-.3447-1.3291h.8867a2.7858,2.7858,0,0,0,.3037,1.0137,2.3481,2.3481,0,0,0,.6113.74,2.5941,2.5941,0,0,0,.8643.4463,3.5713,3.5713,0,0,0,1.0547.15,3.6444,3.6444,0,0,0,.92-.1172,2.5549,2.5549,0,0,0,.8086-.3623,1.9016,1.9016,0,0,0,.5791-.623A1.7649,1.7649,0,0,0,851.752,180.7393Z" transform="translate(80.1667)"/>
      </g>
    </g>
    <path class="cls-10" d="M49.8211,349.4844" transform="translate(80.1667)"/>
    <polyline class="cls-10" points="388.083 444.767 251.909 444.767 251.909 349.484 5.5 349.484"/>
    <g>
      <circle class="cls-7" cx="388.0833" cy="445.2773" r="79.5061"/>
      <g>
        <path class="cls-8" d="M280.2529,439.7656h-3.3984v9.8955h-.8569l.0073-9.8955h-3.4058v-.7686h7.6538Z" transform="translate(80.1667)"/>
        <path class="cls-8" d="M288.7417,449.6611h-.8276v-5.1123h-5.01v5.1123h-.8276V438.9971h.8276v4.79h5.01v-4.79h.8276Z" transform="translate(80.1667)"/>
        <path class="cls-8" d="M294.9087,445.2H292.272v4.4609h-.8643V438.9971h3.01a4.3624,4.3624,0,0,1,1.3257.2266,3.272,3.272,0,0,1,1.0879.6123,2.8466,2.8466,0,0,1,.7324.9775,3.1329,3.1329,0,0,1,.2671,1.3252,2.8737,2.8737,0,0,1-.1577.9746,2.83,2.83,0,0,1-.4355.7949,3.1163,3.1163,0,0,1-.6631.626,4.3114,4.3114,0,0,1-.8457.4609l2.4316,4.57v.0957h-.9155Zm-2.6367-.7393h2.3218a2.6553,2.6553,0,0,0,.93-.19,2.3816,2.3816,0,0,0,.751-.4795,2.1723,2.1723,0,0,0,.498-.7295,2.3725,2.3725,0,0,0,.1792-.93,2.4235,2.4235,0,0,0-.1978-1.0039,2.1921,2.1921,0,0,0-.5381-.7432,2.366,2.366,0,0,0-.8057-.4648,3.3182,3.3182,0,0,0-1-.1758H292.272Z" transform="translate(80.1667)"/>
        <path class="cls-8" d="M305.9609,444.5488h-4.7021v4.3506h5.42v.7617h-6.2915V438.9971h6.2622v.7686h-5.3906v4.0215h4.7021Z" transform="translate(80.1667)"/>
        <path class="cls-8" d="M314.9624,444.5488H310.26v4.3506h5.42v.7617h-6.2915V438.9971h6.2622v.7686H310.26v4.0215h4.7021Z" transform="translate(80.1667)"/>
        <path class="cls-8" d="M320.8877,449.0381a.74.74,0,0,1,.2012-.5234.7119.7119,0,0,1,.5459-.2158.72.72,0,0,1,.5527.2158.7407.7407,0,0,1,.2017.5234.6926.6926,0,0,1-.2017.51.7485.7485,0,0,1-.5527.2012.74.74,0,0,1-.5459-.2012A.6922.6922,0,0,1,320.8877,449.0381Z" transform="translate(80.1667)"/>
        <path class="cls-8" d="M332.5259,438.9971h.8936v7.4268a3.7253,3.7253,0,0,1-.2637,1.333,3.229,3.229,0,0,1-1.7432,1.7871,3.3142,3.3142,0,0,1-1.333.2637,3.7585,3.7585,0,0,1-1.3223-.2236,2.9739,2.9739,0,0,1-1.0288-.6367,3.098,3.098,0,0,1-.6885-.9932,3.8535,3.8535,0,0,1-.3076-1.2959h.8936a2.834,2.834,0,0,0,.2051.9707,2.2818,2.2818,0,0,0,.5015.7578,2.2248,2.2248,0,0,0,.7583.4873,2.7028,2.7028,0,0,0,.9888.1719,2.3083,2.3083,0,0,0,1.0034-.2129,2.3682,2.3682,0,0,0,.7651-.5713,2.55,2.55,0,0,0,.4912-.835,3.2031,3.2031,0,0,0,.1865-1.0029Z" transform="translate(80.1667)"/>
        <path class="cls-8" d="M342.1719,447.0391a1.8712,1.8712,0,0,0-.1133-.67,1.7953,1.7953,0,0,0-.3154-.5312,2.3765,2.3765,0,0,0-.4648-.4141,4.0048,4.0048,0,0,0-.564-.3184q-.3-.1392-.6152-.249t-.6079-.2051q-.3735-.1172-.7578-.26a6.7213,6.7213,0,0,1-.7471-.33,4.7518,4.7518,0,0,1-.6816-.4248,2.9863,2.9863,0,0,1-.5566-.5381,2.3344,2.3344,0,0,1-.5088-1.4941,2.3088,2.3088,0,0,1,.2969-1.18,2.81,2.81,0,0,1,.7725-.8643,3.4567,3.4567,0,0,1,1.0732-.53,4.1442,4.1442,0,0,1,1.2046-.18,3.7574,3.7574,0,0,1,1.2964.2236,3.3987,3.3987,0,0,1,1.08.626,3.02,3.02,0,0,1,.7437.9775,3.1264,3.1264,0,0,1,.3,1.2783h-.8862a3.0629,3.0629,0,0,0-.2563-.9482,2.3264,2.3264,0,0,0-.5273-.7363,2.38,2.38,0,0,0-.7725-.4795,2.6723,2.6723,0,0,0-.978-.1729,3.3036,3.3036,0,0,0-.8823.1211,2.5318,2.5318,0,0,0-.7842.3662,1.9467,1.9467,0,0,0-.5635.6152,1.6872,1.6872,0,0,0-.2163.8682,1.5865,1.5865,0,0,0,.2524.9082,2.2906,2.2906,0,0,0,.6411.63,4.1882,4.1882,0,0,0,.853.4287q.4651.1714.8828.2959c.2588.0781.52.168.7837.2676a6.6347,6.6347,0,0,1,.7651.3477,5.1956,5.1956,0,0,1,.6924.4434,2.93,2.93,0,0,1,.5605.5605,2.5843,2.5843,0,0,1,.373.6992,2.557,2.557,0,0,1,.1357.8535,2.3833,2.3833,0,0,1-.3037,1.2227,2.7957,2.7957,0,0,1-.7876.8682,3.458,3.458,0,0,1-1.0986.5205,4.62,4.62,0,0,1-1.2451.1719,4.5593,4.5593,0,0,1-1.3623-.2051,3.7365,3.7365,0,0,1-1.1753-.6006,3.1177,3.1177,0,0,1-.8389-.9775,2.8832,2.8832,0,0,1-.3442-1.33h.8862a2.8,2.8,0,0,0,.3037,1.0146,2.356,2.356,0,0,0,.6118.74,2.5941,2.5941,0,0,0,.8643.4463,3.5713,3.5713,0,0,0,1.0547.15,3.6406,3.6406,0,0,0,.9194-.1172,2.58,2.58,0,0,0,.8091-.3623,1.91,1.91,0,0,0,.5786-.623A1.7649,1.7649,0,0,0,342.1719,447.0391Z" transform="translate(80.1667)"/>
      </g>
    </g>
    <rect class="cls-7" x="873.0907" y="421.2016" width="164.2935" height="164.2935" rx="4.3262" ry="4.3262"/>
    <path class="cls-3" d="M935.0605,576.5517a600.6117,600.6117,0,0,1-119.98,0,15.5819,15.5819,0,0,1-13.2136-13.2136,600.6122,600.6122,0,0,1,0-119.98,15.5823,15.5823,0,0,1,13.2136-13.2136,600.61,600.61,0,0,1,119.98,0,15.5822,15.5822,0,0,1,13.2136,13.2136,600.6031,600.6031,0,0,1,0,119.98A15.5821,15.5821,0,0,1,935.0605,576.5517Z" transform="translate(80.1667)"/>
    <polygon class="cls-11" points="975.167 547.868 911.223 547.868 911.223 457.868 975.167 547.868"/>
    <circle class="cls-12" cx="960.4167" cy="477.6182" r="19.75"/>
  </g>
</svg>
