<svg id="Layer_1" data-name="Layer 1" xmlns="http://www.w3.org/2000/svg" width="310.5949" height="253.52" viewBox="0 0 310.5949 253.52">
  <defs>
    <style>
      .cls-1 {
        fill: #008cff;
      }
    </style>
  </defs>
  <title>media-outline</title>
  <g>
    <path class="cls-1" d="M177.88,135.26a10.5463,10.5463,0,0,1-2.71-.36v66.55l15.22-6.72V135.26Zm9.51,57.51-9.22,4.07V138.26h9.22Z"/>
    <path class="cls-1" d="M310.33,229.22c-2.26-8.46-11.48-16.45-24.6-21.58a49.946,49.946,0,0,0-50.47-84.86V5.37a3.0025,3.0025,0,0,0-3-3H205.21a6.1067,6.1067,0,0,0-9.66,0H167.08a3.0024,3.0024,0,0,0-3,3V98.88a21.9691,21.9691,0,0,0-8.16-1.56H0v156.2H155.92a22.2821,22.2821,0,0,0,22.25-22.26V220.09h24.75a22.45,22.45,0,0,0-5.27,9.14,7.0322,7.0322,0,0,0,1.18,6.18,6.96,6.96,0,0,0,5.48,2.79,6.6172,6.6172,0,0,0,1.17-.11,278.9749,278.9749,0,0,1,97.02,0,6.5045,6.5045,0,0,0,1.16.11,6.9644,6.9644,0,0,0,5.49-2.79A7.0522,7.0522,0,0,0,310.33,229.22Zm-6.67,5.98a3.5455,3.5455,0,0,1-.64-.06,281.7355,281.7355,0,0,0-98.07,0,3.4631,3.4631,0,0,1-.64.06,4.0727,4.0727,0,0,1-3.77-5.19c1.18-4.46,4.82-8.97,10.31-12.92H175.17v14.17a19.254,19.254,0,0,1-19.25,19.26L32.67,179.37l123.25-79.05a19.1434,19.1434,0,0,1,11.16,3.59V5.37h30.3a3.09,3.09,0,0,1,6.01,0h28.87V124.46a10.8249,10.8249,0,0,1-.51,3.28,46.943,46.943,0,0,1,47.59,80.85c15.27,4.67,25.9,13.14,28.1,21.42A4.0786,4.0786,0,0,1,303.66,235.2Z"/>
    <path class="cls-1" d="M307.44,230.01c-2.2-8.28-12.83-16.75-28.1-21.42a46.9431,46.9431,0,0,0-47.59-80.85,10.8249,10.8249,0,0,0,.51-3.28V5.37H203.39a3.09,3.09,0,0,0-6.01,0h-30.3v98.54a19.1434,19.1434,0,0,0-11.16-3.59L32.67,179.37l123.25,71.15a19.254,19.254,0,0,0,19.25-19.26V217.09h35.68c-5.49,3.95-9.13,8.46-10.31,12.92a4.0727,4.0727,0,0,0,3.77,5.19,3.4631,3.4631,0,0,0,.64-.06,281.7355,281.7355,0,0,1,98.07,0,3.5455,3.5455,0,0,0,.64.06A4.0786,4.0786,0,0,0,307.44,230.01ZM190.39,194.73l-15.22,6.72V134.9a10.5463,10.5463,0,0,0,2.71.36h12.51Zm19.98,0v-8.27a47.0711,47.0711,0,0,0,6.24,11.02Zm0-43.01V135.26h11.09A47.0253,47.0253,0,0,0,210.37,151.72Z"/>
    <path class="cls-1" d="M216.61,197.48l-6.24-2.75v-8.27A47.0711,47.0711,0,0,0,216.61,197.48Z"/>
    <path class="cls-1" d="M210.37,135.26v16.46a47.0253,47.0253,0,0,1,11.09-16.46Zm3,3h1.33c-.46.58-.9,1.16-1.33,1.76Z"/>
  </g>
</svg>
