<svg id="Layer_1" data-name="Layer 1" xmlns="http://www.w3.org/2000/svg" width="307.5898" height="247.5199" viewBox="0 0 307.5898 247.5199">
  <defs>
    <style>
      .cls-1 {
        fill: #c62418;
      }

      .cls-2 {
        fill: #3d3d3d;
      }

      .cls-3 {
        fill: #666;
      }

      .cls-4 {
        fill: #383838;
      }

      .cls-5 {
        fill: #6d6d6d;
      }

      .cls-6 {
        fill: #686868;
      }

      .cls-7 {
        opacity: 0.1;
      }

      .cls-10, .cls-25, .cls-27, .cls-8 {
        fill: none;
        stroke-miterlimit: 10;
      }

      .cls-25, .cls-27, .cls-8 {
        stroke: #000;
      }

      .cls-10, .cls-27, .cls-8 {
        stroke-linecap: round;
      }

      .cls-8 {
        stroke-width: 0.4688px;
      }

      .cls-11, .cls-9 {
        fill: #c1c1c1;
      }

      .cls-10 {
        stroke: #c1c1c1;
        stroke-width: 0.4758px;
      }

      .cls-11 {
        fill-rule: evenodd;
      }

      .cls-12, .cls-20, .cls-27 {
        opacity: 0.2;
      }

      .cls-13, .cls-20 {
        fill: #fff;
      }

      .cls-14 {
        fill: #aaa;
      }

      .cls-15 {
        fill: #d6d6d6;
      }

      .cls-16 {
        opacity: 0.3;
      }

      .cls-17 {
        fill: #303030;
      }

      .cls-18 {
        fill: #727272;
      }

      .cls-19 {
        fill: #518945;
      }

      .cls-21 {
        fill: #0d2f98;
      }

      .cls-22 {
        opacity: 0.5;
      }

      .cls-23 {
        fill: #204db2;
      }

      .cls-24 {
        fill: #3663e0;
      }

      .cls-25 {
        stroke-width: 2.0367px;
      }

      .cls-26 {
        fill: #333;
      }

      .cls-27 {
        stroke-width: 2px;
      }
    </style>
  </defs>
  <title>media</title>
  <g>
    <g>
      <circle class="cls-1" cx="200.3801" cy="3.0924" r="3.0924"/>
      <rect class="cls-2" x="153.7557" y="207.9066" width="93.2487" height="6.1849"/>
      <polygon class="cls-3" points="247.004 207.907 153.756 207.907 190.389 191.731 210.371 191.731 247.004 207.907"/>
      <rect class="cls-4" x="190.3892" y="132.261" width="19.9819" height="59.4699"/>
      <path class="cls-5" d="M232.2559,2.3788H167.077V121.466a10.7949,10.7949,0,0,0,10.7949,10.7949H221.461a10.7949,10.7949,0,0,0,10.7949-10.7949Z"/>
      <rect class="cls-6" x="167.077" y="2.3788" width="65.179" height="79.4517"/>
      <g class="cls-7">
        <line class="cls-8" x1="168.0285" y1="80.6411" x2="231.7802" y2="80.6411"/>
        <line class="cls-8" x1="168.0285" y1="75.8835" x2="231.7802" y2="75.8835"/>
        <line class="cls-8" x1="168.0285" y1="71.126" x2="231.7802" y2="71.126"/>
        <line class="cls-8" x1="168.0285" y1="66.3684" x2="231.7802" y2="66.3684"/>
        <line class="cls-8" x1="168.0285" y1="61.6108" x2="231.7802" y2="61.6108"/>
        <line class="cls-8" x1="168.0285" y1="56.8532" x2="231.7802" y2="56.8532"/>
        <line class="cls-8" x1="168.0285" y1="52.0956" x2="231.7802" y2="52.0956"/>
        <line class="cls-8" x1="168.0285" y1="47.338" x2="231.7802" y2="47.338"/>
        <line class="cls-8" x1="168.0285" y1="42.5804" x2="231.7802" y2="42.5804"/>
        <line class="cls-8" x1="168.0285" y1="37.8228" x2="231.7802" y2="37.8228"/>
        <line class="cls-8" x1="168.0285" y1="33.0652" x2="231.7802" y2="33.0652"/>
        <line class="cls-8" x1="168.0285" y1="28.3077" x2="231.7802" y2="28.3077"/>
        <line class="cls-8" x1="168.0285" y1="23.5501" x2="231.7802" y2="23.5501"/>
        <line class="cls-8" x1="168.0285" y1="18.7925" x2="231.7802" y2="18.7925"/>
        <line class="cls-8" x1="168.0285" y1="14.0349" x2="231.7802" y2="14.0349"/>
        <line class="cls-8" x1="168.0285" y1="9.2773" x2="231.7802" y2="9.2773"/>
        <line class="cls-8" x1="172.1862" y1="3.5682" x2="172.1862" y2="80.6411"/>
        <line class="cls-8" x1="176.8059" y1="3.5682" x2="176.8059" y2="80.6411"/>
        <line class="cls-8" x1="181.4256" y1="3.5682" x2="181.4256" y2="80.6411"/>
        <line class="cls-8" x1="186.0453" y1="3.5682" x2="186.0453" y2="80.6411"/>
        <line class="cls-8" x1="190.665" y1="3.5682" x2="190.665" y2="80.6411"/>
        <line class="cls-8" x1="195.2847" y1="3.5682" x2="195.2847" y2="80.6411"/>
        <line class="cls-8" x1="199.9043" y1="3.5682" x2="199.9043" y2="80.6411"/>
        <line class="cls-8" x1="204.524" y1="3.5682" x2="204.524" y2="80.6411"/>
        <line class="cls-8" x1="209.6057" y1="3.5682" x2="209.6057" y2="80.6411"/>
        <line class="cls-8" x1="214.2254" y1="3.5682" x2="214.2254" y2="80.6411"/>
        <line class="cls-8" x1="218.8451" y1="3.5682" x2="218.8451" y2="80.6411"/>
        <line class="cls-8" x1="223.4647" y1="3.5682" x2="223.4647" y2="80.6411"/>
        <line class="cls-8" x1="228.0844" y1="3.5682" x2="228.0844" y2="80.6411"/>
      </g>
      <circle class="cls-2" cx="199.6665" cy="111.5655" r="9.2773" transform="translate(-20.4077 173.8623) rotate(-45)"/>
      <rect class="cls-9" x="167.077" y="78.976" width="65.179" height="12.3697"/>
      <g>
        <line class="cls-10" x1="206.0583" y1="105.1736" x2="199.6665" y2="111.5655"/>
        <line x1="206.0583" y1="105.1736" x2="199.6665" y2="111.5655"/>
      </g>
      <polygon class="cls-11" points="166.839 2.141 166.839 5.947 167.076 5.947 167.076 78.976 170.394 78.976 170.394 5.947 228.938 5.947 228.938 79.214 232.256 79.214 232.256 5.947 232.256 2.617 232.256 2.141 166.839 2.141"/>
      <g class="cls-12">
        <polygon class="cls-13" points="247.004 207.907 220.362 207.907 205.138 191.731 210.371 191.731 247.004 207.907"/>
      </g>
      <g class="cls-12">
        <rect class="cls-13" x="220.362" y="207.9066" width="26.6425" height="6.1849"/>
      </g>
      <g class="cls-12">
        <rect class="cls-13" x="205.1377" y="132.261" width="5.2333" height="59.4699"/>
      </g>
    </g>
    <g>
      <path class="cls-14" d="M303.021,232.1431a4.0349,4.0349,0,0,0,4.4115-5.1245c-3.2714-12.3384-25.2613-25.1257-53.4477-25.06-28.1861-.0654-50.1768,12.7221-53.4478,25.06a4.0352,4.0352,0,0,0,4.4115,5.1245A281.6847,281.6847,0,0,1,303.021,232.1431Z"/>
      <g class="cls-12">
        <path d="M221.6159,208.1312a62.9059,62.9059,0,0,0,64.738,0,87.9536,87.9536,0,0,0-64.738,0Z"/>
      </g>
      <circle class="cls-15" cx="253.9849" cy="166.0919" r="46.9461"/>
      <g class="cls-16">
        <path class="cls-13" d="M254.2386,175.4812a53.49,53.49,0,0,0,44.4656-23.7074,46.9606,46.9606,0,0,0-89.271-.5164A53.4938,53.4938,0,0,0,254.2386,175.4812Z"/>
      </g>
      <circle class="cls-17" cx="253.9849" cy="166.0919" r="24.3612"/>
      <circle class="cls-18" cx="253.9849" cy="166.0919" r="20.0472"/>
      <circle class="cls-19" cx="253.9849" cy="132.5953" r="3.2989"/>
      <circle class="cls-17" cx="253.9849" cy="166.0919" r="15.987"/>
      <circle class="cls-15" cx="253.9849" cy="166.0919" r="9.643"/>
      <path class="cls-15" d="M200.6015,229.4295a3.9538,3.9538,0,0,0,4.3471,2.7136,281.6847,281.6847,0,0,1,98.0724,0,3.954,3.954,0,0,0,4.3474-2.7135A299.8272,299.8272,0,0,0,200.6015,229.4295Z"/>
      <path class="cls-20" d="M233.9376,166.0919a20.0472,20.0472,0,0,1,39.3813-5.2991l4.1469-1.1881a24.3611,24.3611,0,1,0-46.8359,13.418l4.1469-1.1881A20.0393,20.0393,0,0,1,233.9376,166.0919Z"/>
      <path class="cls-20" d="M244.3419,166.0919a9.6375,9.6375,0,0,1,18.9648-2.4307l6.1093-1.75a15.9879,15.9879,0,1,0-30.7361,8.8056l6.0992-1.7473A9.6378,9.6378,0,0,1,244.3419,166.0919Z"/>
      <g class="cls-12">
        <path d="M253.9849,208.47a70.6573,70.6573,0,0,1-30.8723-7.0129,46.9408,46.9408,0,0,0,61.7446,0A70.6573,70.6573,0,0,1,253.9849,208.47Z"/>
      </g>
      <circle class="cls-21" cx="253.9849" cy="166.0919" r="8.6279"/>
      <ellipse class="cls-22" cx="253.9849" cy="166.0919" rx="7.1054" ry="6.8516"/>
      <g class="cls-12">
        <circle class="cls-13" cx="253.9849" cy="132.0877" r="2.2839"/>
      </g>
    </g>
    <g>
      <path class="cls-23" d="M155.9146,97.3281H0V247.52H155.9146a19.2521,19.2521,0,0,0,19.2521-19.2521V116.58A19.2521,19.2521,0,0,0,155.9146,97.3281Z"/>
      <path class="cls-23" d="M155.696,99.924H0v145H155.696a16.4707,16.4707,0,0,0,16.4707-16.4707V116.3947A16.4707,16.4707,0,0,0,155.696,99.924Z"/>
      <path class="cls-24" d="M155.696,99.924H0v107H172.1667V116.3947A16.4707,16.4707,0,0,0,155.696,99.924Z"/>
      <path class="cls-13" d="M136.696,160.924H0v84H153.1667V177.3947A16.4707,16.4707,0,0,0,136.696,160.924Z"/>
      <g class="cls-12">
        <line class="cls-25" x1="11.6666" y1="160.924" x2="11.6666" y2="244.924"/>
        <line class="cls-25" x1="31.6666" y1="160.924" x2="31.6666" y2="244.924"/>
        <line class="cls-25" x1="51.6666" y1="160.924" x2="51.6666" y2="244.924"/>
        <line class="cls-25" x1="71.6666" y1="160.924" x2="71.6666" y2="244.924"/>
        <line class="cls-25" x1="91.6666" y1="160.924" x2="91.6666" y2="244.924"/>
        <line class="cls-25" x1="111.6666" y1="160.924" x2="111.6666" y2="244.924"/>
        <line class="cls-25" x1="131.6666" y1="160.924" x2="131.6666" y2="244.924"/>
      </g>
      <path class="cls-26" d="M33.8236,205.924H29.51a5.8431,5.8431,0,0,1-5.8431-5.8431V160.924h16v39.1569A5.8431,5.8431,0,0,1,33.8236,205.924Z"/>
      <path class="cls-26" d="M53.8236,205.924H49.51a5.8431,5.8431,0,0,1-5.8431-5.8431V160.924h16v39.1569A5.8431,5.8431,0,0,1,53.8236,205.924Z"/>
      <path class="cls-26" d="M93.8236,205.924H89.51a5.8431,5.8431,0,0,1-5.8431-5.8431V160.924h16v39.1569A5.8431,5.8431,0,0,1,93.8236,205.924Z"/>
      <path class="cls-26" d="M113.8236,205.924H109.51a5.8431,5.8431,0,0,1-5.8431-5.8431V160.924h16v39.1569A5.8431,5.8431,0,0,1,113.8236,205.924Z"/>
      <path class="cls-26" d="M133.8236,205.924H129.51a5.8431,5.8431,0,0,1-5.8431-5.8431V160.924h16v39.1569A5.8431,5.8431,0,0,1,133.8236,205.924Z"/>
      <line class="cls-27" x1="131.6667" y1="119.424" x2="131.6667" y2="151.424"/>
      <rect class="cls-26" x="123.6667" y="136.424" width="16" height="9" rx="3.5085" ry="3.5085"/>
      <line class="cls-27" x1="111.6667" y1="119.424" x2="111.6667" y2="151.424"/>
      <rect class="cls-26" x="103.6667" y="131.424" width="16" height="9" rx="3.5085" ry="3.5085"/>
      <line class="cls-27" x1="91.6667" y1="119.424" x2="91.6667" y2="151.424"/>
      <rect class="cls-26" x="83.6667" y="122.424" width="16" height="9" rx="3.5085" ry="3.5085"/>
      <line class="cls-27" x1="71.6667" y1="119.424" x2="71.6667" y2="151.424"/>
      <rect class="cls-26" x="63.6667" y="139.424" width="16" height="9" rx="3.5085" ry="3.5085"/>
    </g>
  </g>
</svg>
