<svg id="Layer_1" data-name="Layer 1" xmlns="http://www.w3.org/2000/svg" viewBox="0 0 164 112"><defs><style>.cls-1{fill:#fff;}</style></defs><title>midi-logo</title><rect width="164" height="112" rx="9.25" ry="9.25"/><rect class="cls-1" x="71.49" y="32.25" width="13.05" height="48.01"/><rect class="cls-1" x="138.16" y="32.25" width="13.06" height="48.01"/><path class="cls-1" d="M102.73,68.73H120V43.79H89.67V32.25h38.8A4.57,4.57,0,0,1,133,36.81V75.7a4.56,4.56,0,0,1-4.58,4.56H89.67V50.38h13.06Z"/><path class="cls-1" d="M61.8,32.24H14v48h13V43.79h6.59V80.26H46.72V43.79H53.3V80.26H66.37V36.81A4.58,4.58,0,0,0,61.8,32.24Z"/><rect class="cls-1" x="14.03" y="85.17" width="137.19" height="17.26"/><path class="cls-1" d="M24.59,18.17h8.52v9H30.27l-.42-2.1a8.1,8.1,0,0,1-6.36,2.54c-4.91,0-9.38-2.9-9.38-8.77,0-4.58,3.1-8.89,10-8.87,6.25,0,8.72,3.34,8.95,5.65H28.77c0-.66-1.45-2.75-4.46-2.75s-5.85,1.73-5.85,6c0,4.57,3,5.76,5.93,5.76A4.91,4.91,0,0,0,29.34,21H24.59Z"/><path class="cls-1" d="M52.18,13.41H41.35v3.52H51.3v3H41.35v4.33h11.3v3H37.18V10.44h15Z"/><path class="cls-1" d="M68.62,10.44h4V27.2H68.34L60,15.25H60V27.2H56V10.44h4.49l8.09,11.67h.06Z"/><path class="cls-1" d="M91.74,13.41H80.92v3.52h9.95v3H80.92v4.33H92.23v3H76.75V10.44h15Z"/><path class="cls-1" d="M95.75,10.44h10.31c5.42,0,6.42,3.29,6.42,4.74a4.07,4.07,0,0,1-3.15,4c1.68.6,2.57,1.12,2.57,4.24,0,2.45,0,3.06.91,3.34v.45h-4.71a9.64,9.64,0,0,1-.45-3.39c0-2.28-.17-3.17-3.32-3.17H99.94V27.2H95.75Zm9.18,7.37c2.22,0,3.29-.63,3.29-2.29,0-.88-.49-2.19-3-2.19h-5.3v4.48Z"/><path class="cls-1" d="M119.22,27.2h-4.5L122,10.44h4.91l7.2,16.75h-4.65l-1.3-3.45h-7.53Zm2.55-6.35H127l-2.52-6.63h-.06Z"/><path class="cls-1" d="M141.13,24.16h10.15v3h-14.4V10.44h4.25Z"/></svg>