<svg id="Layer_1" data-name="Layer 1" xmlns="http://www.w3.org/2000/svg" width="80.3741" height="139.9687" viewBox="0 0 80.3741 139.9687">
  <defs>
    <style>
      .cls-1 {
        fill: #d6d6d6;
        stroke: #484b60;
        stroke-width: 0.3689px;
      }

      .cls-1, .cls-2, .cls-6 {
        stroke-miterlimit: 10;
      }

      .cls-2 {
        fill: none;
        stroke-width: 0.3926px;
      }

      .cls-2, .cls-6 {
        stroke: #000;
        opacity: 0.3;
      }

      .cls-3 {
        opacity: 0.4;
      }

      .cls-4 {
        fill: #3a3a3a;
      }

      .cls-5, .cls-6 {
        fill: #fff;
      }

      .cls-5 {
        opacity: 0.05;
      }

      .cls-6 {
        stroke-linecap: round;
        stroke-width: 0.7377px;
      }

      .cls-7 {
        opacity: 0.1;
      }
    </style>
  </defs>
  <title>mouse</title>
  <g>
    <path class="cls-1" d="M77.8,21.1684C76.7035,10.599,70.3308,6.09,63.5521,3.8583A78.69,78.69,0,0,0,40.187.1844,78.69,78.69,0,0,0,16.822,3.8583C10.0433,6.09,3.6706,10.599,2.5737,21.1684-.8144,53.8156-.403,86.113,2.5737,118.8c1.0969,12.0448,7.4694,15.0787,14.2483,17.31a78.69,78.69,0,0,0,23.3651,3.6739A78.69,78.69,0,0,0,63.5521,136.11C70.331,133.879,76.7035,130.8451,77.8,118.8,80.7771,86.113,81.1885,53.8156,77.8,21.1684Z"/>
    <path class="cls-2" d="M40.187,54.4925H79.99"/>
    <path class="cls-2" d="M40.187.1844V54.4925H.3844"/>
    <rect class="cls-3" x="34.2854" y="10.4146" width="11.6189" height="30.2609" rx="5.8094" ry="5.8094"/>
    <g>
      <rect class="cls-4" x="35.0231" y="11.1523" width="10.1435" height="28.7855" rx="5.0717" ry="5.0717"/>
      <path class="cls-5" d="M40.0948,11.1523c-.0311,0-.0612.0041-.0922.0047V39.9331c.031.0006.0611.0047.0922.0047a5.0717,5.0717,0,0,0,5.0717-5.0717V16.224A5.0717,5.0717,0,0,0,40.0948,11.1523Z"/>
      <g class="cls-3">
        <line class="cls-6" x1="37.6973" y1="17.4228" x2="42.4924" y2="17.4228"/>
        <line class="cls-6" x1="37.6973" y1="21.1113" x2="42.4924" y2="21.1113"/>
        <line class="cls-6" x1="37.6973" y1="24.7999" x2="42.4924" y2="24.7999"/>
        <line class="cls-6" x1="37.6973" y1="28.4884" x2="42.4924" y2="28.4884"/>
        <line class="cls-6" x1="37.6973" y1="32.1769" x2="42.4924" y2="32.1769"/>
        <line class="cls-6" x1="37.6973" y1="35.8654" x2="42.4924" y2="35.8654"/>
        <line class="cls-6" x1="37.6973" y1="15.5785" x2="42.4924" y2="15.5785"/>
        <line class="cls-6" x1="37.6973" y1="19.2671" x2="42.4924" y2="19.2671"/>
        <line class="cls-6" x1="37.6973" y1="22.9556" x2="42.4924" y2="22.9556"/>
        <line class="cls-6" x1="37.6973" y1="26.6441" x2="42.4924" y2="26.6441"/>
        <line class="cls-6" x1="37.6973" y1="30.3327" x2="42.4924" y2="30.3327"/>
        <line class="cls-6" x1="37.6973" y1="34.0212" x2="42.4924" y2="34.0212"/>
      </g>
    </g>
    <g class="cls-7">
      <path d="M40.187,122.73c-14.0529,0-37.8074-3.873-39.5461-32.823q.6,14.4146,1.9328,28.893c1.0969,12.0448,7.4694,15.0787,14.2483,17.31a78.69,78.69,0,0,0,23.3651,3.6739A78.69,78.69,0,0,0,63.5521,136.11C70.331,133.879,76.7035,130.8451,77.8,118.8q1.3194-14.4881,1.9328-28.893C77.9945,118.8574,54.24,122.73,40.187,122.73Z"/>
    </g>
  </g>
</svg>
