<svg id="Layer_1" data-name="Layer 1" xmlns="http://www.w3.org/2000/svg" width="90.5352" height="149.5069" viewBox="0 0 90.5352 149.5069">
  <defs>
    <style>
      .cls-1 {
        fill: #f4d451;
      }
    </style>
  </defs>
  <title>mouse-outline</title>
  <path class="cls-1" d="M87.8315,22.4732C86.59,11.1537,79.3787,6.3245,71.7079,3.9346A93.6845,93.6845,0,0,0,45.2676,0a93.6845,93.6845,0,0,0-26.44,3.9346C11.1565,6.3245,3.945,11.1537,2.7038,22.4732c-3.834,34.9641-3.3685,69.5536,0,104.5606,1.2412,12.9,8.4525,16.1488,16.1236,18.5386a93.6845,93.6845,0,0,0,26.44,3.9346,93.6845,93.6845,0,0,0,26.44-3.9346c7.6711-2.39,14.8823-5.639,16.1236-18.5386C91.2,92.0267,91.6654,57.4372,87.8315,22.4732Z"/>
</svg>
