<svg id="Layer_1" data-name="Layer 1" xmlns="http://www.w3.org/2000/svg" width="66.8363" height="517.497" viewBox="0 0 66.8363 517.497">
  <defs>
    <style>
      .cls-1 {
        fill: #fff;
      }

      .cls-2 {
        fill: #424242;
      }
    </style>
  </defs>
  <title>needle</title>
  <g>
    <path class="cls-1" d="M960,796.8506a31.4535,31.4535,0,0,1-31.418-31.418l24.8115-475.8081a6.6154,6.6154,0,0,1,13.2129,0L991.418,765.4326A31.4532,31.4532,0,0,1,960,796.8506Z" transform="translate(-926.5818 -281.3533)"/>
    <path class="cls-2" d="M960,285.3533a4.6159,4.6159,0,0,1,4.61,4.3754l24.8085,475.7035a29.4182,29.4182,0,0,1-58.8363,0L955.39,289.7287a4.6159,4.6159,0,0,1,4.61-4.3754m0-4a8.6133,8.6133,0,0,0-8.6042,8.1671L926.5873,765.2238l-.0054.1041v.1042a33.4182,33.4182,0,0,0,66.8363,0v-.1042l-.0054-.1041L968.6042,289.52A8.6133,8.6133,0,0,0,960,281.3533Z" transform="translate(-926.5818 -281.3533)"/>
  </g>
</svg>
