<svg id="Layer_1" data-name="Layer 1" xmlns="http://www.w3.org/2000/svg" viewBox="0 0 371 150.19"><defs><style>.cls-1{fill:#204db2;}.cls-2{fill:#3663e0;}.cls-3{fill:#515151;}.cls-4{opacity:0.29;}.cls-10,.cls-11,.cls-5,.cls-8{fill:none;stroke-miterlimit:10;}.cls-5{stroke:#204db2;}.cls-10,.cls-11,.cls-5{stroke-width:2px;}.cls-6{fill:#fff;}.cls-10,.cls-7{opacity:0.2;}.cls-10,.cls-8{stroke:#000;}.cls-8{stroke-width:2.04px;}.cls-9{fill:#333;}.cls-10,.cls-11{stroke-linecap:round;}.cls-11{stroke:#ff9700;}</style></defs><title>synth</title><rect class="cls-1" width="371" height="150.19" rx="19.25" ry="19.25"/><rect class="cls-1" x="3" y="2.6" width="365" height="145" rx="16.47" ry="16.47"/><path class="cls-2" d="M368,109.6V19.07A16.47,16.47,0,0,0,351.53,2.6H19.47A16.47,16.47,0,0,0,3,19.07V109.6Z"/><rect class="cls-3" x="18" y="87.6" width="16" height="45" rx="5.84" ry="5.84"/><rect class="cls-3" x="40" y="87.6" width="16" height="45" rx="5.84" ry="5.84"/><g class="cls-4"><circle cx="26" cy="110.1" r="4.5"/></g><g class="cls-4"><circle cx="48" cy="110.6" r="4.5"/></g><rect class="cls-5" x="18" y="87.6" width="16" height="45" rx="5.84" ry="5.84"/><rect class="cls-5" x="40" y="87.6" width="16" height="45" rx="5.84" ry="5.84"/><path class="cls-6" d="M332.53,63.6H82.47A16.47,16.47,0,0,0,66,80.07V147.6H349V80.07A16.47,16.47,0,0,0,332.53,63.6Z"/><g class="cls-7"><line class="cls-8" x1="87.5" y1="63.6" x2="87.5" y2="147.6"/><line class="cls-8" x1="107.5" y1="63.6" x2="107.5" y2="147.6"/><line class="cls-8" x1="127.5" y1="63.6" x2="127.5" y2="147.6"/><line class="cls-8" x1="147.5" y1="63.6" x2="147.5" y2="147.6"/><line class="cls-8" x1="167.5" y1="63.6" x2="167.5" y2="147.6"/><line class="cls-8" x1="187.5" y1="63.6" x2="187.5" y2="147.6"/><line class="cls-8" x1="207.5" y1="63.6" x2="207.5" y2="147.6"/><line class="cls-8" x1="227.5" y1="63.6" x2="227.5" y2="147.6"/><line class="cls-8" x1="247.5" y1="63.6" x2="247.5" y2="147.6"/><line class="cls-8" x1="267.5" y1="63.6" x2="267.5" y2="147.6"/><line class="cls-8" x1="287.5" y1="63.6" x2="287.5" y2="147.6"/><line class="cls-8" x1="307.5" y1="63.6" x2="307.5" y2="147.6"/><line class="cls-8" x1="327.5" y1="63.6" x2="327.5" y2="147.6"/></g><path class="cls-9" d="M89.66,108.6H85.34a5.84,5.84,0,0,1-5.84-5.84V63.6h16v39.16A5.84,5.84,0,0,1,89.66,108.6Z"/><path class="cls-9" d="M109.66,108.6h-4.31a5.84,5.84,0,0,1-5.84-5.84V63.6h16v39.16A5.84,5.84,0,0,1,109.66,108.6Z"/><path class="cls-9" d="M149.66,108.6h-4.31a5.84,5.84,0,0,1-5.84-5.84V63.6h16v39.16A5.84,5.84,0,0,1,149.66,108.6Z"/><path class="cls-9" d="M169.66,108.6h-4.31a5.84,5.84,0,0,1-5.84-5.84V63.6h16v39.16A5.84,5.84,0,0,1,169.66,108.6Z"/><path class="cls-9" d="M189.66,108.6h-4.31a5.84,5.84,0,0,1-5.84-5.84V63.6h16v39.16A5.84,5.84,0,0,1,189.66,108.6Z"/><path class="cls-9" d="M229.66,108.6h-4.31a5.84,5.84,0,0,1-5.84-5.84V63.6h16v39.16A5.84,5.84,0,0,1,229.66,108.6Z"/><path class="cls-9" d="M249.66,108.6h-4.31a5.84,5.84,0,0,1-5.84-5.84V63.6h16v39.16A5.84,5.84,0,0,1,249.66,108.6Z"/><path class="cls-9" d="M289.66,108.6h-4.31a5.84,5.84,0,0,1-5.84-5.84V63.6h16v39.16A5.84,5.84,0,0,1,289.66,108.6Z"/><path class="cls-9" d="M309.66,108.6h-4.31a5.84,5.84,0,0,1-5.84-5.84V63.6h16v39.16A5.84,5.84,0,0,1,309.66,108.6Z"/><path class="cls-9" d="M329.66,108.6h-4.31a5.84,5.84,0,0,1-5.84-5.84V63.6h16v39.16A5.84,5.84,0,0,1,329.66,108.6Z"/><line class="cls-10" x1="327.5" y1="22.1" x2="327.5" y2="54.1"/><rect class="cls-9" x="319.5" y="39.1" width="16" height="9" rx="3.51" ry="3.51"/><line class="cls-10" x1="307.5" y1="22.1" x2="307.5" y2="54.1"/><rect class="cls-9" x="299.5" y="34.1" width="16" height="9" rx="3.51" ry="3.51"/><line class="cls-10" x1="287.5" y1="22.1" x2="287.5" y2="54.1"/><rect class="cls-9" x="279.5" y="25.1" width="16" height="9" rx="3.51" ry="3.51"/><line class="cls-10" x1="267.5" y1="22.1" x2="267.5" y2="54.1"/><rect class="cls-9" x="259.5" y="42.1" width="16" height="9" rx="3.51" ry="3.51"/><circle class="cls-9" cx="91.5" cy="35.6" r="10.5"/><line class="cls-11" x1="94.71" y1="32.38" x2="98.35" y2="28.75"/><circle class="cls-9" cx="121.5" cy="35.6" r="10.5" transform="translate(10.42 96.34) rotate(-45)"/><line class="cls-11" x1="126.05" y1="35.6" x2="131.19" y2="35.6"/><circle class="cls-9" cx="151.5" cy="35.6" r="10.5" transform="translate(19.2 117.55) rotate(-45)"/><line class="cls-11" x1="151.5" y1="31.05" x2="151.5" y2="25.91"/></svg>