<svg id="Layer_1" data-name="Layer 1" xmlns="http://www.w3.org/2000/svg" viewBox="0 0 91 91"><defs><style>.cls-1{fill:#fff;}.cls-2{fill:#ea4600;}</style></defs><title>synth-speak</title><path class="cls-1" d="M45.5,0A45.5,45.5,0,0,0,8,71.26V83H19.74A45.5,45.5,0,1,0,45.5,0Z"/><path class="cls-2" d="M12.63,48c-.88.68-1.35,1.31-1.35,1.85,0,.78,1,1.13,3.25,1.13a16.44,16.44,0,0,0,4.9-.69l.18,2.88a12.56,12.56,0,0,0-1.48.15,28.71,28.71,0,0,1-3.73.24A10.16,10.16,0,0,1,10.59,53a2.81,2.81,0,0,1-2-2.71c0-1.33.66-2.43,2.15-3.61ZM9.57,41.21a23,23,0,0,0,5,.4,21.91,21.91,0,0,0,4.17-.27l.06,2.29a33.27,33.27,0,0,0-4.17,2.65L12.75,45c.44-.3.46-.31,1.19-.75a3.45,3.45,0,0,1,.36-.21l.24-.14A11.09,11.09,0,0,1,13.3,44a32.45,32.45,0,0,1-3.37-.18l-.52,0Z"/><path class="cls-2" d="M28.27,41.08A58.77,58.77,0,0,0,26,46.67,3.1,3.1,0,0,1,27.85,46a2,2,0,0,1,2,1.44A8.51,8.51,0,0,1,30,50c0,1,.18,1.38.72,1.38s1-.39,1.4-1.21a8.29,8.29,0,0,0,.61-2.77,7.84,7.84,0,0,0,2.38,1.5,7.79,7.79,0,0,1-1.35,3.46,4.07,4.07,0,0,1-3.35,1.6,2.87,2.87,0,0,1-2.19-.78,2.91,2.91,0,0,1-.72-2.23c0-.13,0-.42,0-1.06V49.6c0-.73-.17-1-.63-1-.69,0-1.41.69-2,2A18.31,18.31,0,0,0,23.76,54L21,53.19A21.66,21.66,0,0,0,22.18,50c.12-.37.65-1.87,1.56-4.52a42.78,42.78,0,0,0,1.6-5Z"/><path class="cls-2" d="M40.21,41.09a28.2,28.2,0,0,0-1.14,7.24l1.15.39a14.81,14.81,0,0,0-.58,4.2,4.21,4.21,0,0,0,0,.74l-2.58.12A6.05,6.05,0,0,0,37,53a31.73,31.73,0,0,1-.39-4.74,32.43,32.43,0,0,1,.57-5.77,12.46,12.46,0,0,0,.23-1.6Zm4.14,6.55a3.7,3.7,0,0,0-1,2.07c0,.69.67,1.06,1.95,1.06A11.14,11.14,0,0,0,49,50.17l.15,2.65L47.91,53a18.34,18.34,0,0,1-2.59.19,6.11,6.11,0,0,1-3.1-.63,2.78,2.78,0,0,1-1.38-2.38,4.7,4.7,0,0,1,.72-2.34c.21-.35.3-.5.7-1.08Zm-2.94-5.41a12.53,12.53,0,0,0,2.67.23,19.46,19.46,0,0,0,4.47-.37l.1,2.56c-.13,0-.28,0-1.11.1-1,.1-2.13.17-3.17.17a24.79,24.79,0,0,1-2.58-.12l-.44,0Z"/><path class="cls-2" d="M50.83,42.46a15.27,15.27,0,0,0,3.24.25,11.5,11.5,0,0,0,.34-2.27l2.79.23c-.17.54-.17.54-.52,2a24.2,24.2,0,0,0,5.58-.62l.1,2.56a10.67,10.67,0,0,0-1.06.08c-2.1.21-3.48.3-5.22.34a15.9,15.9,0,0,1-.87,2.25,7.24,7.24,0,0,1,3.29-.67,5.6,5.6,0,0,1,3.24.79A3,3,0,0,1,63,50c0,2.43-2.29,3.94-6,3.94a15.7,15.7,0,0,1-3.81-.48,10.66,10.66,0,0,0-.25-2.59,13.63,13.63,0,0,0,4,.69c2,0,3.27-.62,3.27-1.59,0-.71-.75-1.1-2.11-1.1a6.57,6.57,0,0,0-3.06.69,2.22,2.22,0,0,0-1,.78l-2.54-.81A22,22,0,0,0,53.5,45l-.55,0c-.3,0-.31,0-1.48-.09l-.5,0-.17,0Z"/><path class="cls-2" d="M68.8,40.94a8.57,8.57,0,0,0-.44,1.48,27.34,27.34,0,0,0-.72,5.82l1.15.39a13.67,13.67,0,0,0-.63,4.57c0,.08,0,.27,0,.6l-2.53.1c0-.27,0-.27-.12-1.19a29.36,29.36,0,0,1-.33-4.54,29.92,29.92,0,0,1,.6-6.06A9.35,9.35,0,0,0,66,40.82v-.07Zm.54,2.44a13.39,13.39,0,0,0,2.8.24l1.08,0V41.66a4.14,4.14,0,0,0-.07-.84h2.59a17.48,17.48,0,0,0-.12,2.62A14,14,0,0,0,78,43l.09,2.38a4.08,4.08,0,0,0-.56.09c-.46.1-1.14.19-1.89.28,0,1.17,0,1.47.13,3.19a12.05,12.05,0,0,1,2.42,1.37,1.93,1.93,0,0,0,.28.18L77.55,53a7.6,7.6,0,0,0-1.78-1.43v.12c0,1.27-1.31,2.13-3.23,2.13-2.21,0-3.51-1-3.51-2.79a2.64,2.64,0,0,1,1.14-2.21,4,4,0,0,1,2.31-.62,4.39,4.39,0,0,1,.87.09c0-.42,0-.5,0-1.2,0-.51,0-.72,0-1.24h-.85c-.45,0-1.32,0-2.58-.07l-.35,0h-.18Zm4,7.14a2.41,2.41,0,0,0-.92-.18c-.69,0-1.11.27-1.11.69s.39.65,1,.65,1-.27,1-.87Z"/><path class="cls-2" d="M80.43,49.61a6.72,6.72,0,0,0,0-.78c0-.17,0-.17-.06-1.06L80.1,43c0-.75-.12-1.56-.18-2h3.49c-.07.58-.12,1.21-.18,2l-.3,4.75c0,.6,0,.94,0,1.19a6.5,6.5,0,0,0,0,.66Zm-.25,3.85V50.63h3v2.83Z"/></svg>