<svg id="Layer_1" data-name="Layer 1" xmlns="http://www.w3.org/2000/svg" width="164.2935" height="164.2935" viewBox="0 0 164.2935 164.2935">
  <defs>
    <style>
      .cls-1 {
        fill: #fff;
      }

      .cls-2 {
        fill: black;
      }
    </style>
  </defs>
  <title>tv</title>
  <rect class="cls-1" width="164.2935" height="164.2935" rx="4.3262" ry="4.3262"/>
  <path class="cls-2" d="M142.1365,155.35a600.6207,600.6207,0,0,1-119.98,0A15.5826,15.5826,0,0,1,8.9433,142.1365a600.6122,600.6122,0,0,1,0-119.98A15.5825,15.5825,0,0,1,22.1569,8.9433a600.6071,600.6071,0,0,1,119.98,0A15.5829,15.5829,0,0,1,155.35,22.1569a600.6031,600.6031,0,0,1,0,119.98A15.5834,15.5834,0,0,1,142.1365,155.35Z"/>
</svg>
